<?xml version="1.0" standalone="no"?>
<!DOCTYPE svg PUBLIC "-//W3C//DTD SVG 20010904//EN"
 "http://www.w3.org/TR/2001/REC-SVG-20010904/DTD/svg10.dtd">
<svg version="1.0" xmlns="http://www.w3.org/2000/svg"
 width="1574.000000pt" height="1574.000000pt" viewBox="0 0 1574.000000 1574.000000"
 preserveAspectRatio="xMidYMid meet">
<metadata>
Created by potrace 1.14, written by Peter Selinger 2001-2017
</metadata>
<g transform="translate(0.000000,1574.000000) scale(0.100000,-0.100000)"
fill="#000000" stroke="none">
<path d="M7460 15155 c-30 -17 -44 -19 -35 -5 3 6 1 10 -4 10 -6 0 -12 -10
-12 -22 -1 -17 -2 -19 -6 -5 -2 9 -9 17 -14 17 -6 0 -8 -10 -5 -22 l6 -23 -11
22 c-10 19 -49 40 -47 24 0 -3 0 -13 -2 -21 -1 -11 -4 -9 -10 5 -8 19 -9 19
-9 1 -1 -15 -4 -16 -16 -6 -9 7 -18 10 -22 6 -3 -3 -1 -6 6 -6 7 0 9 -5 6 -11
-4 -6 -13 -8 -20 -6 -12 5 -45 -26 -45 -41 1 -4 10 4 20 17 11 13 20 19 20 14
0 -6 -8 -17 -18 -26 -15 -13 -21 -14 -32 -4 -10 9 -11 9 -6 0 5 -8 1 -13 -9
-13 -9 0 -14 -3 -12 -7 3 -5 -5 -17 -16 -28 -11 -12 -17 -14 -13 -5 5 9 2 8
-7 -2 -8 -10 -20 -18 -28 -18 -11 0 -11 -2 1 -10 13 -8 12 -10 -3 -10 -10 0
-15 -4 -12 -10 3 -6 -1 -7 -9 -4 -10 4 -16 1 -16 -10 0 -9 -6 -13 -15 -10 -8
4 -17 -1 -21 -9 -3 -9 -12 -13 -20 -10 -8 3 -11 10 -7 16 3 6 1 7 -6 3 -8 -6
-9 -12 -2 -20 8 -9 7 -13 -4 -13 -8 0 -15 3 -15 7 0 4 -15 7 -33 6 -19 0 -34
-6 -34 -13 0 -7 5 -9 11 -6 6 4 5 -1 -2 -9 -14 -18 -42 -14 -42 6 0 6 -4 5 -9
-3 -5 -8 -17 -16 -25 -17 -9 -1 -14 2 -10 7 3 5 10 7 15 4 5 -4 9 -1 9 4 0 6
-4 11 -9 11 -14 0 -33 -28 -27 -39 4 -6 -2 -8 -14 -6 -11 2 -20 0 -20 -6 0 -5
-5 -9 -11 -9 -5 0 -7 5 -3 12 4 7 3 8 -5 4 -7 -4 -9 -17 -6 -29 5 -17 4 -18
-4 -8 -5 8 -17 16 -26 17 -12 2 -13 -1 -5 -11 8 -10 4 -12 -19 -9 -17 2 -33
-1 -36 -6 -3 -5 0 -7 8 -4 7 2 14 -1 14 -8 0 -7 -11 -14 -24 -14 -14 -1 -21 2
-17 10 3 6 -1 3 -9 -6 -16 -21 -31 -24 -22 -5 4 6 -5 0 -19 -15 -14 -16 -28
-28 -31 -28 -13 0 -47 -39 -41 -48 3 -6 -1 -13 -10 -16 -10 -4 -14 -12 -9 -24
5 -14 4 -15 -6 -4 -15 14 -33 16 -24 2 6 -9 -8 -14 -28 -11 -5 1 -6 -3 -3 -8
3 -5 -1 -12 -10 -15 -14 -5 -14 -9 -3 -23 13 -15 12 -15 -11 -3 -24 13 -24 12
-10 -5 13 -17 13 -18 -1 -13 -9 3 -22 2 -30 -4 -11 -8 -11 -9 3 -4 10 3 20 1
23 -5 4 -5 11 -6 17 -3 6 4 8 3 5 -3 -4 -6 -18 -9 -32 -8 -14 2 -23 -1 -19 -6
3 -5 11 -7 17 -3 7 3 3 -2 -8 -10 -11 -9 -28 -23 -37 -31 -12 -10 -18 -11 -21
-2 -3 9 -8 8 -18 -2 -8 -8 -9 -11 -3 -8 7 4 14 0 17 -8 4 -10 1 -12 -10 -8
-10 4 -14 2 -10 -4 3 -5 0 -10 -7 -10 -8 0 -12 7 -9 16 3 12 2 11 -7 -2 -6 -9
-15 -15 -19 -13 -4 3 -6 -8 -5 -25 1 -16 -2 -27 -7 -24 -4 3 -5 13 -2 23 3 9
-6 2 -21 -17 -14 -19 -26 -39 -26 -44 0 -4 -4 -5 -10 -2 -6 4 -7 -1 -3 -11 5
-14 3 -16 -12 -10 -11 4 -17 4 -13 1 3 -4 0 -18 -7 -32 -8 -15 -11 -31 -8 -37
4 -6 0 -5 -9 2 -14 11 -16 10 -11 -7 3 -12 0 -27 -6 -34 -6 -8 -7 -18 -3 -22
4 -5 1 -5 -6 -1 -10 6 -10 11 -2 21 8 9 8 15 0 20 -6 4 -9 3 -8 -2 1 -4 -3
-18 -10 -29 -6 -12 -8 -25 -4 -29 4 -5 -1 -5 -11 -2 -10 4 -16 3 -12 -2 3 -5
2 -11 -2 -14 -5 -2 -3 -2 4 -1 7 2 10 -3 6 -12 -3 -8 -11 -13 -18 -10 -8 3
-10 -3 -8 -18 3 -15 -4 -28 -26 -44 -27 -19 -30 -26 -20 -43 9 -17 7 -21 -9
-26 -14 -3 -19 -11 -17 -25 3 -14 0 -18 -11 -14 -10 4 -13 2 -7 -7 14 -23 12
-39 -5 -32 -9 3 -13 3 -9 -1 4 -4 2 -13 -3 -19 -7 -8 -7 -21 -1 -38 9 -22 8
-25 -6 -20 -12 5 -14 3 -8 -7 6 -10 4 -12 -11 -7 -18 7 -18 6 -1 -7 18 -14 24
-32 7 -21 -10 6 -12 1 -13 -46 -1 -19 -5 -25 -15 -21 -12 4 -12 1 -3 -16 7
-12 8 -22 2 -22 -5 0 -7 -10 -4 -22 4 -19 3 -20 -6 -8 -9 13 -11 12 -11 -3 0
-10 -4 -16 -8 -13 -5 3 -9 -1 -9 -9 0 -8 4 -12 9 -9 4 3 8 1 8 -4 0 -5 -10
-14 -22 -21 -13 -6 -15 -9 -6 -7 10 3 20 1 23 -4 4 -6 0 -10 -7 -10 -9 0 -9
-3 2 -10 10 -6 11 -10 3 -10 -7 0 -13 -5 -13 -11 0 -5 6 -7 13 -4 6 4 1 -3
-13 -15 -21 -18 -22 -21 -5 -15 16 5 17 4 8 -6 -10 -10 -9 -17 5 -33 9 -11 11
-16 5 -12 -8 4 -13 1 -13 -9 0 -9 5 -13 10 -10 6 3 10 1 10 -4 0 -6 -4 -11
-10 -11 -5 0 -10 -5 -10 -11 0 -5 6 -7 13 -3 9 6 9 5 0 -8 -7 -8 -10 -18 -6
-21 3 -4 0 -15 -8 -24 -7 -10 -9 -15 -5 -11 5 4 16 2 25 -5 14 -11 15 -10 1 8
-11 16 -11 17 0 8 15 -14 23 -46 9 -37 -5 3 -9 0 -9 -5 0 -6 8 -11 18 -12 11
0 12 -2 4 -6 -10 -4 -9 -9 5 -20 10 -8 12 -11 4 -7 -10 5 -13 3 -8 -9 3 -9 1
-18 -6 -21 -7 -2 -4 -5 6 -5 9 -1 17 -6 17 -12 0 -5 -5 -7 -12 -3 -7 4 -3 -6
9 -22 23 -32 20 -56 -5 -47 -14 6 -15 5 -2 -9 8 -9 20 -13 25 -10 6 3 1 -5
-10 -18 l-20 -23 25 13 25 13 -25 -28 c-25 -28 -25 -28 -2 -16 21 11 23 11 15
-6 -9 -16 -10 -35 -3 -48 1 -3 3 -9 4 -14 0 -5 5 -13 10 -18 5 -5 6 -2 1 6 -6
10 -4 12 4 6 9 -5 10 -10 2 -18 -18 -18 -13 -26 14 -21 14 2 25 0 25 -5 0 -6
-9 -8 -20 -6 -11 2 -20 -1 -20 -6 0 -6 -5 -7 -12 -3 -7 4 -8 3 -4 -5 4 -6 11
-9 15 -7 4 3 12 -4 19 -14 10 -16 9 -18 -5 -13 -12 5 -14 3 -7 -8 4 -8 9 -21
11 -29 1 -8 7 -16 12 -18 6 -2 11 -8 11 -13 0 -6 -4 -7 -10 -4 -16 10 -11 -1
7 -16 14 -12 16 -12 8 0 -5 10 -4 12 4 7 6 -4 9 -12 6 -17 -4 -5 2 -9 12 -10
10 0 13 -3 6 -5 -7 -3 -22 0 -35 7 l-23 11 23 -21 c12 -12 19 -27 16 -33 -4
-7 -2 -8 5 -4 6 4 9 12 6 17 -4 5 -4 9 -1 9 3 0 13 -15 21 -32 12 -25 12 -29
2 -15 -14 17 -15 17 -21 0 -4 -10 -4 -14 0 -11 3 4 12 1 19 -5 10 -9 10 -15 1
-26 -7 -10 -7 -13 0 -8 6 3 16 -5 22 -18 9 -19 9 -25 0 -25 -6 0 -8 -3 -5 -6
4 -4 13 -1 22 6 9 8 15 8 15 2 0 -6 -5 -14 -11 -17 -7 -5 -4 -14 8 -28 10 -11
13 -17 6 -14 -6 4 -15 2 -19 -5 -4 -7 -4 -10 1 -6 14 13 45 -11 38 -30 -6 -15
-5 -15 10 -3 9 7 17 12 18 10 0 -2 3 -15 5 -29 2 -13 8 -27 12 -30 4 -3 8 -12
10 -20 2 -8 10 -23 19 -32 8 -9 12 -21 9 -26 -3 -5 1 -9 8 -9 8 0 12 7 9 16
-3 10 0 8 8 -3 9 -16 9 -21 0 -24 -7 -2 -4 -11 10 -23 28 -24 37 -24 15 0 -12
13 -14 21 -6 26 6 3 10 3 9 -2 -3 -20 2 -25 15 -14 10 8 16 9 21 1 4 -6 3 -10
-2 -9 -20 3 -23 -2 -12 -22 9 -17 8 -20 -2 -14 -8 6 -10 4 -5 -4 5 -7 14 -10
21 -7 20 7 26 -5 12 -22 -9 -13 -9 -14 1 -8 11 6 17 -11 13 -37 0 -4 2 -6 6
-6 20 3 34 -2 28 -11 -3 -6 1 -7 9 -4 9 3 16 1 16 -5 0 -9 5 -9 21 0 17 9 20
8 13 -3 -5 -7 -9 -20 -11 -28 -1 -11 1 -11 11 3 12 16 14 16 20 2 3 -9 2 -13
-4 -10 -6 3 -10 2 -10 -3 0 -6 7 -13 16 -16 8 -3 12 -10 9 -16 -6 -9 8 -14 28
-11 4 0 7 -6 7 -14 0 -8 5 -15 10 -15 6 0 9 3 8 8 -3 7 5 12 18 12 4 0 -2 -12
-11 -27 -18 -27 -18 -28 1 -11 16 14 22 14 37 4 9 -7 17 -17 17 -21 0 -5 -9 0
-20 10 -11 10 -20 13 -20 8 0 -6 7 -14 16 -17 8 -3 13 -10 10 -14 -2 -4 9 -7
25 -6 17 1 28 0 25 -3 -3 -3 -1 -15 5 -26 9 -15 8 -18 -2 -12 -8 5 -10 4 -5
-3 4 -7 1 -12 -6 -12 -11 0 -10 -2 0 -9 10 -6 9 -10 -7 -14 -14 -3 -24 1 -30
11 -8 14 -10 14 -8 -5 0 -12 4 -20 7 -18 3 1 10 -3 17 -10 10 -10 9 -16 -2
-25 -8 -7 -12 -17 -8 -24 3 -6 2 -7 -2 -3 -12 10 -15 38 -4 31 5 -3 9 -1 9 4
0 5 -9 12 -20 15 -11 3 -20 2 -20 -2 0 -4 -7 -8 -15 -9 -8 -1 -22 -3 -30 -4
-18 -2 -20 -15 -2 -20 6 -3 -2 -5 -20 -5 -21 0 -34 6 -36 16 -4 14 -5 14 -6 0
-1 -21 -40 -32 -58 -17 -11 8 -12 7 -7 -7 6 -15 4 -16 -17 -5 l-24 13 20 -23
20 -23 -27 17 c-18 12 -28 14 -33 6 -4 -6 -13 -9 -21 -6 -8 3 -11 0 -8 -8 3
-9 -3 -13 -18 -12 -13 1 -31 -8 -41 -21 -19 -23 -36 -26 -49 -8 -4 6 -8 2 -8
-8 0 -10 -6 -17 -12 -15 -7 3 -19 -1 -26 -9 -12 -12 -42 -18 -66 -14 -5 1 -3
-6 5 -15 8 -10 9 -15 3 -11 -6 3 -23 0 -38 -8 -15 -8 -38 -16 -51 -18 -13 -1
-28 -7 -32 -12 -5 -4 -2 -5 6 0 10 6 12 4 6 -4 -4 -7 -15 -11 -24 -8 -10 2
-18 -1 -18 -8 0 -8 7 -11 16 -7 9 3 13 2 10 -2 -4 -4 -16 -9 -29 -11 -17 -3
-21 -1 -16 13 6 16 5 16 -7 0 -8 -10 -17 -15 -20 -11 -4 3 -7 -1 -7 -10 0 -11
-5 -14 -17 -10 -10 4 -14 2 -10 -4 5 -7 0 -9 -13 -6 -12 3 -20 0 -20 -6 0 -7
5 -9 12 -5 7 4 8 3 4 -5 -4 -6 -11 -9 -16 -6 -4 3 -11 -1 -14 -7 -3 -7 -3 -3
0 10 5 22 5 22 -21 -4 -21 -21 -28 -24 -41 -13 -8 7 -14 8 -13 3 1 -5 1 -15 0
-23 -1 -11 -4 -11 -18 0 -15 12 -16 12 -10 -3 3 -10 3 -17 -1 -17 -26 4 -42
-2 -36 -13 5 -8 0 -7 -11 2 -17 14 -18 13 -13 -2 8 -19 -18 -34 -26 -15 -2 7
-5 2 -5 -10 -1 -17 -5 -21 -18 -16 -12 5 -15 2 -10 -9 4 -11 1 -14 -11 -11
-11 2 -24 -7 -35 -24 -10 -15 -16 -20 -13 -11 5 15 3 16 -14 5 -11 -6 -20 -15
-20 -20 0 -4 5 -5 12 -1 7 4 8 3 4 -5 -6 -9 -11 -9 -24 1 -9 7 -13 8 -9 2 4
-7 -1 -18 -10 -25 -11 -10 -14 -10 -9 -2 5 9 2 11 -8 7 -9 -3 -13 -11 -9 -17
4 -7 0 -8 -11 -4 -14 6 -17 3 -12 -9 6 -15 4 -15 -11 -3 -11 9 -14 10 -9 2 4
-8 2 -13 -4 -13 -6 0 -9 -4 -5 -9 3 -5 0 -13 -6 -17 -7 -4 -9 -3 -6 3 4 6 0
14 -9 17 -8 3 -12 2 -9 -4 3 -6 -2 -13 -12 -17 -10 -4 -24 -15 -31 -25 -7 -10
-18 -18 -24 -18 -7 0 -3 7 8 16 18 14 18 15 -4 4 -13 -6 -26 -18 -29 -26 -3
-7 -10 -11 -16 -7 -6 4 -8 0 -4 -10 4 -11 2 -14 -9 -10 -8 3 -21 0 -29 -7 -8
-7 -15 -9 -15 -4 0 5 -7 -2 -16 -14 -8 -12 -12 -27 -9 -32 4 -6 3 -10 -2 -9
-21 4 -34 -2 -27 -13 5 -8 2 -9 -10 -5 -14 5 -17 3 -12 -8 3 -9 0 -15 -8 -15
-7 0 -18 -10 -25 -22 -9 -18 -10 -19 -6 -3 4 14 3 17 -4 10 -6 -6 -12 -23 -13
-37 -1 -15 -6 -24 -10 -22 -4 3 -6 10 -4 17 1 7 1 9 -1 4 -3 -4 -9 -5 -14 -2
-5 4 -6 -2 -2 -11 4 -12 3 -15 -5 -10 -7 4 -12 1 -12 -9 0 -9 -4 -14 -9 -11
-5 3 -11 -1 -14 -8 -3 -8 -3 -17 1 -19 4 -2 1 -2 -6 -1 -7 2 -15 -3 -18 -11
-4 -8 -13 -15 -21 -15 -8 0 -11 -5 -7 -12 5 -8 2 -9 -9 -5 -10 4 -16 2 -14 -5
1 -7 -5 -13 -13 -13 -8 0 -14 -6 -13 -13 2 -7 -2 -12 -8 -12 -5 0 -7 -5 -3
-12 5 -7 3 -8 -6 -3 -10 6 -12 4 -7 -8 4 -11 2 -14 -7 -11 -7 3 -16 -2 -20
-11 -3 -10 -13 -15 -21 -12 -9 4 -12 1 -9 -7 3 -8 0 -17 -5 -21 -6 -3 -8 -11
-5 -17 4 -7 2 -8 -5 -4 -9 6 -9 12 1 24 12 15 11 16 -4 4 -10 -8 -17 -17 -16
-20 0 -4 0 -14 -1 -22 -1 -13 -2 -13 -11 0 -8 13 -10 12 -10 -3 0 -10 -7 -20
-15 -23 -8 -4 -15 -13 -15 -21 0 -8 -4 -12 -8 -9 -13 8 -36 -40 -27 -54 6 -9
2 -9 -14 -1 -25 14 -27 8 -4 -15 16 -16 16 -16 -6 -9 -16 5 -21 4 -17 -4 4 -6
2 -11 -4 -11 -6 0 -9 -4 -6 -9 3 -5 -3 -11 -14 -14 -12 -3 -18 -11 -15 -19 3
-8 -4 -18 -17 -24 -13 -6 -17 -9 -10 -7 6 1 12 -2 12 -7 0 -6 -8 -10 -17 -11
-11 0 -13 -3 -5 -6 6 -2 9 -9 6 -14 -3 -6 -11 -5 -20 2 -12 10 -13 8 -5 -13 9
-23 7 -25 -15 -22 -13 1 -22 -1 -19 -6 2 -4 -4 -15 -14 -24 -11 -10 -18 -28
-16 -42 2 -20 0 -22 -12 -12 -12 10 -14 8 -11 -8 2 -12 -2 -18 -11 -16 -12 3
-12 1 0 -14 13 -16 12 -16 -11 -4 -14 7 -22 9 -17 5 4 -5 -1 -18 -10 -29 l-18
-21 25 20 c15 12 20 14 12 4 -6 -9 -8 -19 -4 -23 4 -4 3 -6 -3 -5 -17 5 -56
-12 -50 -22 4 -5 2 -9 -4 -9 -5 0 -8 -10 -6 -22 4 -22 4 -22 -10 -4 -14 18
-15 18 -15 2 0 -13 -5 -16 -17 -11 -15 5 -16 4 -5 -6 17 -18 15 -29 -5 -22
-16 6 -17 5 -3 -12 8 -10 10 -16 4 -12 -11 6 -29 -19 -26 -35 1 -5 -3 -8 -8
-8 -6 0 -10 -7 -10 -16 0 -8 -4 -13 -9 -9 -5 3 -12 1 -16 -5 -3 -6 4 -10 17
-11 23 -1 23 -1 -2 -9 -14 -4 -19 -8 -12 -9 6 -1 12 -5 12 -11 0 -5 -7 -7 -15
-4 -11 4 -13 2 -9 -9 3 -10 -1 -17 -12 -19 -13 -2 -18 -13 -18 -38 -1 -27 -5
-35 -19 -33 -10 0 -16 -2 -13 -5 3 -3 0 -12 -7 -20 -8 -11 -8 -14 0 -9 13 8
12 -18 -2 -30 -4 -4 -5 -3 -2 3 4 7 0 14 -8 17 -10 4 -12 1 -8 -10 4 -11 2
-14 -5 -9 -8 5 -10 2 -6 -8 3 -9 11 -13 17 -9 6 3 7 1 3 -5 -3 -6 -15 -9 -26
-7 -12 2 -18 0 -15 -5 3 -5 1 -11 -5 -15 -6 -4 -8 -10 -5 -15 3 -5 -3 -14 -12
-20 -15 -8 -13 -9 8 -4 15 3 29 2 32 -3 3 -5 -3 -10 -14 -11 -42 -4 -48 -6
-43 -14 3 -5 11 -5 17 -1 7 4 6 -1 -2 -11 -8 -9 -20 -15 -27 -12 -8 3 -11 0
-7 -9 3 -8 10 -12 16 -8 6 3 7 1 3 -6 -4 -6 -11 -9 -16 -6 -5 3 -11 1 -15 -5
-3 -5 -1 -10 4 -10 6 0 11 -5 11 -11 0 -5 -5 -7 -11 -3 -8 5 -10 -1 -7 -19 3
-14 2 -26 -1 -25 -25 3 -34 -3 -23 -14 9 -9 8 -14 -4 -23 -9 -6 -17 -28 -18
-48 -2 -20 -11 -47 -22 -59 -19 -21 -19 -21 1 -15 20 7 20 7 1 -8 -11 -8 -24
-15 -30 -15 -5 0 -1 -7 10 -16 10 -8 14 -13 7 -10 -6 4 -14 2 -18 -4 -3 -5 0
-10 7 -11 7 0 4 -4 -6 -8 -20 -8 -33 -51 -16 -51 7 0 7 -6 1 -19 -6 -10 -7
-22 -3 -27 4 -5 -1 -2 -11 5 -16 13 -17 12 -8 -13 10 -26 2 -33 -32 -27 -5 1
-6 -3 -2 -9 3 -6 11 -8 16 -5 8 5 11 -6 8 -32 0 -5 -7 -7 -15 -5 -13 3 -13 -1
-4 -17 6 -13 7 -21 1 -21 -14 0 -41 -59 -30 -66 5 -3 -1 -14 -13 -25 -13 -11
-17 -18 -9 -17 7 2 16 -3 19 -11 3 -9 0 -11 -7 -6 -8 4 -12 2 -11 -6 3 -21
-11 -59 -20 -54 -4 3 -14 -3 -21 -13 -13 -15 -12 -16 3 -4 9 8 19 9 22 4 3 -6
-2 -13 -11 -16 -15 -6 -15 -8 -3 -16 11 -7 12 -10 2 -10 -7 0 -11 -3 -9 -7 7
-11 -19 -33 -29 -25 -4 4 0 -4 9 -17 15 -22 15 -25 -2 -40 -9 -9 -11 -12 -5
-8 9 6 12 2 11 -12 -1 -15 -6 -20 -16 -16 -9 3 -12 3 -8 -1 4 -4 1 -14 -6 -23
-10 -14 -10 -14 3 -4 13 10 16 8 16 -8 0 -10 -7 -19 -16 -19 -12 0 -12 -2 -1
-9 11 -7 11 -9 0 -14 -10 -4 -10 -6 -1 -6 6 -1 12 -6 12 -12 0 -5 -6 -7 -12
-3 -10 6 -10 4 0 -8 9 -12 10 -18 2 -23 -7 -4 -9 -16 -7 -27 4 -14 2 -17 -7
-9 -9 8 -12 6 -11 -9 1 -11 4 -23 8 -26 10 -11 8 -24 -4 -24 -5 0 -8 4 -5 8 3
5 -1 9 -9 9 -10 0 -12 -4 -5 -12 5 -7 6 -16 2 -20 -4 -5 -2 -6 3 -2 6 3 11 -3
11 -13 0 -13 -4 -16 -11 -10 -8 7 -12 5 -12 -5 0 -8 4 -15 9 -15 4 0 8 -4 8
-10 0 -5 -8 -6 -18 -3 -15 6 -15 5 -3 -10 8 -11 9 -17 3 -17 -7 0 -9 -7 -5
-17 5 -12 3 -14 -8 -8 -11 7 -11 5 1 -11 8 -10 20 -22 25 -26 7 -5 6 -8 0 -8
-6 0 -17 6 -24 13 -10 10 -11 8 -5 -7 6 -15 4 -17 -6 -11 -9 5 -11 4 -6 -4 4
-6 13 -8 19 -5 8 5 8 3 0 -7 -17 -17 -17 -32 0 -23 10 6 10 4 0 -7 -17 -17
-17 -51 0 -68 10 -11 10 -13 0 -7 -9 5 -13 1 -13 -11 0 -11 -6 -25 -12 -32
-11 -11 -10 -12 1 -6 11 6 13 3 9 -13 -4 -15 -2 -22 9 -22 8 0 11 -5 8 -10 -4
-6 -12 -7 -18 -4 -7 4 -9 4 -5 -1 4 -4 2 -15 -5 -24 -10 -14 -10 -14 4 -3 14
10 18 10 23 -3 3 -9 2 -13 -4 -10 -9 5 -16 -42 -11 -69 1 -5 -3 -12 -9 -16 -8
-5 -6 -9 5 -13 9 -4 13 -3 10 3 -3 6 -2 10 3 10 6 0 9 -11 8 -24 -1 -23 -2
-24 -21 -8 -11 9 -14 10 -7 2 6 -8 12 -23 12 -34 0 -17 2 -18 10 -6 6 9 10 10
10 3 0 -6 -4 -15 -10 -18 -15 -9 -12 -27 3 -19 10 6 10 4 0 -7 -17 -17 -17
-32 0 -23 8 5 8 2 -2 -9 -7 -9 -10 -17 -5 -17 5 0 9 -18 10 -39 1 -39 0 -39
-17 -17 -18 21 -18 21 -6 -6 6 -16 15 -28 18 -28 10 0 3 -38 -10 -54 -12 -14
-11 -16 5 -10 15 6 17 4 7 -6 -10 -11 -9 -16 5 -27 14 -11 14 -12 1 -8 -10 4
-16 0 -16 -10 0 -8 3 -15 7 -15 8 0 4 -79 -4 -87 -3 -3 -1 -15 5 -26 8 -14 8
-18 0 -13 -6 4 -11 2 -11 -3 0 -6 5 -11 11 -11 8 0 7 -6 -2 -17 -12 -15 -12
-16 3 -10 12 4 15 2 11 -8 -3 -8 -9 -13 -13 -10 -5 3 -12 1 -15 -5 -4 -6 -1
-9 6 -8 7 2 13 -14 16 -45 3 -34 0 -47 -7 -42 -7 4 -6 -2 2 -14 11 -18 11 -23
-2 -31 -11 -7 -11 -10 -2 -10 7 0 11 -4 8 -9 -4 -5 6 -19 21 -30 18 -14 21
-19 9 -14 -15 5 -18 3 -13 -9 3 -9 3 -19 -1 -22 -10 -10 -11 -37 -1 -30 5 3 9
1 9 -5 0 -5 -6 -12 -12 -14 -10 -4 -10 -6 0 -6 6 -1 12 -8 12 -16 0 -8 -6 -15
-12 -16 -7 0 -4 -4 7 -9 11 -5 15 -9 10 -9 -6 -1 -10 -18 -11 -38 0 -21 1 -32
3 -25 3 6 9 12 14 12 6 0 6 -8 -1 -19 -14 -27 -13 -31 8 -25 9 4 4 -4 -13 -15
-30 -22 -30 -22 -4 -17 17 3 26 0 26 -10 0 -7 -4 -11 -9 -8 -4 3 -8 2 -9 -3 0
-4 -2 -18 -3 -31 -2 -13 1 -25 6 -28 4 -3 5 -10 2 -16 -4 -7 -2 -8 5 -4 9 6 9
12 -1 24 -12 15 -11 16 4 3 13 -10 15 -18 8 -31 -14 -26 -13 -30 8 -23 11 4 8
-1 -8 -16 -21 -19 -22 -21 -4 -12 21 10 21 8 19 -34 -2 -25 -6 -49 -9 -54 -4
-5 -1 -13 5 -17 8 -4 9 -3 5 4 -4 7 -3 12 3 12 5 0 9 -9 8 -20 -1 -11 -7 -18
-13 -16 -7 3 -10 -3 -7 -14 3 -10 11 -21 18 -24 9 -3 12 -17 8 -47 -5 -34 -3
-41 8 -37 10 4 15 -1 15 -13 0 -12 -4 -15 -11 -9 -8 7 -12 5 -12 -5 0 -8 4
-15 8 -15 4 0 10 -7 13 -16 3 -8 2 -12 -3 -9 -5 3 -13 0 -17 -6 -5 -8 -3 -9 5
-5 8 6 11 2 9 -10 -2 -13 3 -19 14 -18 11 1 14 -4 11 -13 -3 -8 0 -19 8 -25
11 -8 11 -9 -2 -5 -13 4 -16 -1 -15 -23 0 -16 4 -26 9 -23 4 2 5 9 2 14 -4 5
2 6 11 2 10 -4 13 -8 7 -10 -7 -3 -9 -11 -6 -20 4 -10 2 -14 -4 -10 -5 3 -10
0 -10 -9 0 -9 7 -13 21 -9 12 3 15 2 9 -1 -7 -3 -13 -15 -13 -27 0 -18 -2 -19
-10 -7 -5 8 -10 10 -10 4 0 -15 19 -30 45 -37 17 -4 16 -5 -5 -6 -22 -1 -23
-3 -7 -12 9 -5 22 -7 27 -4 6 4 7 -1 3 -11 -5 -13 -3 -15 7 -9 9 6 11 4 6 -4
-6 -9 -12 -8 -26 4 -14 12 -20 13 -26 4 -4 -8 -3 -10 4 -5 7 4 12 1 12 -8 0
-9 6 -16 13 -16 8 0 7 -4 -3 -10 -8 -5 -10 -10 -4 -10 7 0 14 -10 17 -22 6
-22 6 -22 -8 -4 -8 11 -15 15 -15 9 0 -6 7 -16 15 -23 8 -7 12 -16 9 -21 -3
-5 0 -9 7 -9 10 0 10 -3 1 -12 -7 -7 -12 -17 -12 -22 0 -6 5 -4 11 4 9 12 10
10 6 -8 -5 -19 -3 -21 9 -11 12 10 17 10 27 0 9 -10 8 -11 -6 -5 -13 5 -16 2
-10 -12 4 -10 2 -15 -4 -11 -5 3 -10 0 -10 -8 0 -8 5 -15 10 -15 5 0 7 -6 4
-14 -4 -10 0 -14 11 -11 13 2 17 -3 17 -19 -1 -12 -5 -27 -9 -34 -10 -16 3
-35 20 -28 8 3 14 1 14 -4 0 -9 -15 -14 -33 -11 -5 1 -6 -3 -2 -9 4 -6 13 -9
22 -8 8 2 22 -8 30 -22 l15 -25 -22 25 c-18 21 -21 22 -15 5 4 -11 8 -25 9
-32 1 -7 6 -16 11 -20 4 -4 5 -2 1 4 -5 9 -2 11 10 6 16 -6 15 -8 -4 -16 -25
-12 -29 -24 -7 -24 8 0 15 4 15 9 0 4 4 8 8 8 5 0 9 -7 9 -15 0 -8 -4 -12 -9
-9 -4 3 -8 0 -8 -6 0 -6 -4 -9 -8 -6 -5 3 -9 -2 -9 -10 0 -10 4 -11 11 -4 16
16 30 12 16 -5 -7 -9 -10 -19 -6 -22 4 -4 11 -1 15 6 6 9 11 10 15 2 4 -6 3
-11 -2 -11 -5 0 -12 -9 -15 -21 -4 -15 -2 -19 10 -15 8 3 17 6 19 6 3 0 2 5
-2 12 -5 7 -3 8 6 3 10 -6 7 -13 -11 -27 -13 -11 -17 -18 -8 -15 9 3 16 -1 16
-9 0 -7 -4 -11 -9 -8 -4 3 -5 -2 -2 -10 4 -10 1 -16 -7 -16 -9 -1 -8 -4 4 -11
9 -5 21 -8 26 -4 5 3 13 0 17 -6 4 -7 3 -10 -2 -6 -5 3 -15 -6 -21 -20 -7 -14
-10 -23 -7 -20 11 11 33 -17 23 -29 -6 -7 -3 -16 8 -25 11 -9 14 -10 9 -1 -4
6 -2 12 3 12 16 0 13 -11 -6 -33 -17 -19 -17 -20 4 -8 17 8 23 8 29 -1 4 -7 4
-10 0 -6 -5 4 -14 2 -21 -5 -10 -9 -9 -14 4 -24 12 -8 18 -9 24 0 6 8 7 7 4
-3 -2 -8 -12 -14 -22 -13 -13 1 -14 -2 -6 -10 9 -9 17 -8 34 1 13 8 10 3 -8
-12 -26 -22 -27 -25 -7 -19 13 3 22 1 22 -6 0 -7 -4 -10 -8 -7 -5 3 -4 -10 2
-29 6 -19 15 -35 20 -35 4 0 2 -8 -5 -17 -10 -11 -10 -14 -1 -9 11 7 17 -5 13
-27 -1 -5 3 -6 8 -3 14 9 21 -20 8 -33 -8 -8 -6 -11 8 -11 17 0 18 -2 5 -10
-12 -8 -12 -10 5 -10 17 0 17 -2 5 -10 -12 -8 -12 -10 5 -11 11 0 14 -3 8 -6
-28 -11 -11 -39 20 -34 5 1 6 -3 2 -9 -3 -6 -10 -8 -14 -6 -4 3 -8 -2 -8 -10
0 -10 7 -14 20 -10 13 3 17 2 10 -5 -12 -12 -5 -59 8 -59 5 0 9 -10 9 -22 0
-19 2 -20 10 -8 13 21 13 3 -1 -22 -9 -17 -9 -20 4 -15 11 4 13 0 10 -14 -3
-10 -1 -19 5 -19 5 0 13 -7 16 -16 5 -14 4 -15 -9 -4 -13 11 -14 10 -9 -4 3
-9 14 -16 23 -17 12 0 12 -2 -4 -9 -19 -8 -19 -9 2 -9 19 -1 21 -6 18 -31 -2
-17 1 -30 6 -30 5 0 9 5 9 12 0 6 2 9 5 6 9 -8 -6 -38 -16 -32 -15 9 -10 -3 8
-17 14 -12 16 -12 8 0 -5 10 -4 12 4 7 9 -6 9 -11 1 -21 -10 -12 -7 -13 10
-10 22 4 22 4 5 -15 -17 -19 -17 -19 2 -16 17 4 19 0 15 -21 -4 -20 -2 -24 9
-18 11 7 11 5 -1 -10 -9 -11 -10 -16 -2 -11 7 4 12 2 12 -4 0 -6 4 -9 8 -6 11
6 9 -25 -3 -43 -5 -10 -4 -12 3 -7 7 4 12 1 12 -6 0 -9 3 -9 10 2 5 8 10 10
10 4 0 -5 -5 -15 -12 -22 -9 -9 -9 -12 0 -12 7 0 12 -7 12 -16 0 -9 -5 -12
-12 -8 -7 4 -8 3 -4 -5 4 -6 11 -9 16 -6 4 3 11 -2 14 -11 3 -8 2 -13 -2 -10
-4 2 -8 -4 -8 -14 0 -10 4 -16 8 -14 8 5 12 -11 9 -29 -1 -5 3 -6 9 -2 6 3 7
11 4 17 -4 7 -2 8 4 4 6 -4 8 -14 5 -23 -5 -12 -3 -14 8 -8 12 8 12 6 0 -8 -8
-11 -9 -17 -3 -17 7 0 9 -7 5 -17 -5 -12 -3 -14 7 -8 9 6 11 4 5 -5 -6 -10 -3
-12 11 -7 18 7 18 7 0 -8 -11 -8 -15 -15 -10 -15 14 0 42 -53 36 -69 -2 -8 0
-11 5 -8 5 3 10 0 10 -8 0 -8 -3 -12 -7 -10 -4 2 -7 -2 -7 -10 0 -8 3 -14 6
-13 18 2 31 -3 31 -13 0 -5 -4 -8 -8 -5 -4 2 -14 0 -22 -6 -13 -8 -12 -9 1 -5
20 7 52 -30 46 -53 -3 -13 1 -16 20 -14 20 2 22 0 12 -12 -14 -17 -23 -19 -13
-2 4 7 3 8 -4 4 -17 -10 -15 -26 3 -26 12 0 14 -4 5 -19 -7 -14 -7 -22 0 -26
6 -4 8 -10 5 -14 -2 -5 7 -7 20 -5 21 2 23 -1 16 -15 -6 -10 -6 -23 -1 -31 5
-8 6 -18 4 -22 -3 -4 0 -8 6 -8 7 0 9 7 6 16 -3 9 -2 12 5 9 5 -4 7 -16 3 -27
-4 -15 -3 -18 6 -13 9 6 9 3 1 -13 -8 -15 -7 -23 4 -32 8 -7 12 -17 9 -24 -3
-6 1 -3 9 7 9 10 18 14 21 8 3 -5 2 -11 -3 -13 -5 -1 -11 -12 -13 -23 -2 -14
2 -20 14 -19 10 1 16 -3 15 -10 -1 -6 4 -10 11 -8 8 1 11 -2 7 -8 -5 -8 -11
-8 -20 0 -9 8 -15 8 -20 0 -4 -6 -1 -9 7 -8 7 2 12 -3 10 -11 -2 -8 3 -11 13
-8 18 7 21 -9 3 -17 -7 -4 -4 -5 8 -2 12 2 21 -2 21 -10 0 -7 -5 -11 -10 -7
-5 3 -4 -4 2 -14 6 -11 7 -24 3 -29 -4 -5 1 -2 10 5 10 7 15 18 11 24 -4 6 -1
7 6 2 9 -5 10 -10 2 -18 -18 -18 -13 -40 7 -35 11 3 19 0 19 -7 0 -8 -7 -11
-16 -7 -9 3 -13 2 -9 -3 4 -4 3 -14 -4 -22 -6 -8 -7 -13 -2 -12 26 5 36 -2 31
-22 -3 -12 -3 -18 0 -15 8 8 33 -13 33 -28 0 -6 -5 -4 -10 4 -7 12 -9 10 -7
-7 1 -18 4 -20 22 -11 18 10 19 10 6 -6 -12 -15 -12 -16 5 -10 18 5 18 5 0
-10 -11 -9 -15 -16 -8 -16 6 0 9 -8 6 -17 -4 -11 -2 -14 3 -8 10 13 43 16 43
4 0 -5 -7 -9 -15 -9 -8 0 -15 -4 -15 -9 0 -6 9 -8 21 -6 17 4 19 2 9 -10 -12
-15 -3 -21 25 -15 5 1 1 -8 -9 -19 -15 -16 -16 -21 -5 -21 8 0 19 3 25 8 5 4
0 -2 -11 -12 l-20 -19 23 6 c19 4 21 3 11 -9 -9 -11 -9 -14 1 -14 9 0 9 -4 -1
-17 -9 -11 -10 -14 -2 -9 9 5 12 -1 9 -24 -3 -23 -1 -28 9 -20 9 8 14 6 19 -5
4 -11 2 -14 -7 -10 -6 4 -5 1 4 -7 10 -8 15 -26 13 -45 -1 -18 2 -36 8 -39 7
-5 8 -2 3 6 -5 9 -4 11 3 6 9 -5 7 -14 -5 -33 -17 -26 -17 -26 6 -13 19 10 22
10 15 -1 -5 -8 -9 -31 -10 -53 -1 -22 2 -33 6 -26 5 7 7 22 5 32 -2 10 0 16 5
13 5 -3 7 -17 4 -31 -3 -14 -1 -23 4 -20 5 3 9 -1 9 -9 0 -8 -4 -12 -8 -10 -4
3 -10 -2 -13 -11 -3 -8 -2 -12 3 -9 5 3 12 1 15 -4 4 -5 2 -12 -4 -16 -16 -10
-12 -25 8 -25 14 0 15 -2 2 -10 -8 -5 -10 -10 -4 -10 6 0 16 -12 23 -28 10
-23 10 -25 -2 -9 -8 9 -18 17 -22 17 -4 0 -2 -7 5 -15 7 -8 10 -21 7 -30 -4
-8 -1 -17 5 -21 6 -4 8 -3 4 4 -3 6 -2 13 3 16 10 7 9 -13 -2 -30 -10 -17 4
-25 22 -11 14 11 14 10 2 -5 -7 -10 -17 -15 -22 -12 -5 3 -9 0 -9 -5 0 -6 7
-11 15 -11 8 0 15 -5 15 -11 0 -5 -6 -7 -12 -3 -7 4 -4 -3 7 -16 11 -13 14
-20 8 -16 -17 9 -17 -6 -1 -23 8 -9 8 -11 2 -8 -7 4 -15 0 -18 -9 -3 -8 -2
-12 4 -9 6 3 10 3 11 -2 0 -4 2 -21 4 -36 3 -25 2 -27 -13 -15 -15 12 -16 11
-3 -4 7 -10 10 -25 7 -34 -5 -14 -4 -15 8 -5 12 10 14 7 10 -18 -3 -17 -1 -31
5 -31 10 0 9 -19 -2 -37 -5 -9 -3 -11 6 -7 8 3 18 0 23 -7 4 -7 3 -10 -3 -6
-6 4 -13 -4 -15 -18 -5 -24 7 -36 14 -15 2 6 9 0 17 -12 13 -20 12 -22 -1 -11
-12 11 -18 9 -34 -8 -14 -15 -15 -20 -4 -17 8 2 14 -3 12 -9 -1 -7 6 -13 15
-13 17 -1 17 -1 0 -14 -16 -12 -16 -14 -2 -20 9 -3 13 -2 10 4 -3 6 -1 10 4
10 14 0 14 -13 -1 -28 -9 -9 -9 -12 0 -12 7 0 12 -7 12 -16 0 -9 5 -12 12 -8
7 4 8 3 4 -5 -4 -6 -11 -9 -16 -6 -5 3 -12 0 -16 -6 -4 -7 -3 -9 3 -6 6 4 16
0 23 -8 10 -12 10 -18 0 -30 -12 -14 -7 -19 13 -16 5 1 6 -3 2 -9 -3 -6 -10
-8 -15 -5 -4 3 -14 -3 -21 -13 -13 -15 -12 -16 3 -4 11 9 18 10 23 2 3 -5 0
-10 -7 -10 -10 0 -10 -2 1 -9 11 -7 11 -9 0 -14 -12 -5 -12 -7 -1 -15 19 -13
19 -17 4 -34 -10 -13 -10 -17 0 -21 10 -4 10 -6 -1 -6 -10 -1 -11 -4 -2 -15 8
-10 9 -16 1 -21 -5 -3 -10 -11 -10 -16 0 -6 3 -8 8 -6 4 3 7 -10 8 -29 0 -22
-2 -30 -7 -22 -7 10 -11 10 -21 0 -9 -9 -9 -15 1 -24 10 -11 11 -9 5 7 -4 11
-4 17 0 14 10 -9 16 -49 7 -49 -4 0 -13 6 -20 12 -10 11 -11 9 -5 -6 5 -14 4
-17 -5 -12 -6 4 -11 4 -10 -1 4 -16 -13 -43 -24 -36 -6 4 -7 1 -2 -7 6 -10 11
-10 20 3 7 9 16 13 20 9 5 -4 5 -2 1 5 -9 17 14 28 27 13 9 -10 9 -11 0 -6 -8
5 -13 1 -13 -9 0 -10 5 -13 12 -9 7 4 8 3 4 -5 -4 -6 -12 -9 -17 -6 -5 4 -9 1
-9 -5 0 -6 -4 -9 -9 -6 -5 3 -14 -1 -20 -8 -10 -11 -8 -16 8 -21 25 -8 27 -21
5 -29 -8 -3 -12 -10 -9 -16 4 -6 -1 -7 -12 -3 -16 6 -16 4 2 -17 11 -13 15
-20 9 -17 -13 7 -37 -15 -29 -27 3 -3 -1 -1 -8 5 -9 8 -8 13 7 25 16 11 17 14
4 14 -20 0 -26 -15 -23 -57 1 -19 -2 -30 -8 -26 -6 4 -8 0 -4 -10 6 -16 -8
-31 -28 -32 -5 0 -10 -10 -9 -22 0 -12 -3 -20 -8 -17 -4 3 -11 -2 -14 -10 -3
-9 -11 -16 -17 -16 -5 0 -2 10 9 23 l19 22 -23 -19 c-12 -11 -20 -26 -17 -33
3 -9 0 -11 -7 -7 -8 5 -9 2 -5 -10 4 -9 3 -15 -2 -11 -5 3 -11 2 -14 -2 -2 -5
-2 -2 0 5 1 7 -2 10 -7 7 -6 -3 -10 -1 -10 6 0 7 -15 -2 -34 -20 -19 -18 -39
-30 -44 -27 -6 3 -17 -1 -25 -9 -12 -11 -17 -12 -20 -2 -3 9 -8 9 -18 -2 -9
-9 -9 -11 -1 -7 6 4 12 2 12 -3 0 -6 -12 -11 -27 -11 -22 0 -25 2 -13 10 9 6
10 10 3 10 -19 0 -25 -18 -8 -28 11 -6 2 -8 -27 -6 -29 1 -46 -3 -55 -15 -12
-15 -13 -14 -7 1 3 10 1 18 -5 18 -6 0 -11 -6 -11 -14 0 -15 -24 -28 -34 -18
-7 6 -38 12 -68 13 -28 0 -21 15 7 15 14 0 25 -4 25 -8 0 -4 5 -8 11 -8 5 0 8
4 5 8 -2 4 5 9 17 9 15 2 18 0 8 -6 -8 -6 -9 -11 -3 -15 12 -7 26 10 18 22 -3
5 11 9 32 8 30 -1 37 3 39 19 2 15 1 16 -5 5 -4 -9 -19 -15 -37 -14 -16 0 -38
-3 -47 -8 -12 -6 -20 -3 -27 9 -6 11 -11 13 -11 5 0 -7 -4 -11 -9 -7 -5 3 -12
1 -16 -5 -4 -6 -12 -7 -18 -3 -18 11 -38 12 -31 2 3 -5 1 -9 -5 -9 -5 0 -12 6
-15 13 -2 6 -4 1 -3 -13 2 -19 -2 -24 -15 -22 -10 2 -18 -1 -18 -5 0 -5 -9 -9
-20 -10 -11 -1 -20 4 -20 10 0 7 -4 6 -11 -3 -9 -12 -10 -12 -5 3 4 12 2 17
-6 15 -7 -3 -13 -13 -13 -23 0 -10 -6 -20 -12 -22 -7 -3 -13 0 -13 7 0 6 5 8
10 5 6 -3 10 -2 10 3 0 16 -13 22 -27 11 -9 -9 -13 -8 -13 0 0 10 13 15 33 12
14 -2 7 17 -9 23 -8 3 -13 2 -10 -3 9 -14 -20 -21 -34 -8 -7 7 -5 -3 4 -23 11
-23 12 -29 3 -18 -8 10 -18 14 -22 10 -5 -4 -5 -2 -2 4 4 7 -1 18 -11 25 -15
12 -16 12 -4 -2 11 -14 7 -16 -30 -14 -24 1 -52 -4 -62 -11 -13 -9 -25 -10
-38 -3 -10 5 -18 6 -17 2 3 -20 -2 -27 -12 -13 -9 12 -10 11 -6 -6 3 -13 -1
-21 -9 -21 -7 0 -11 5 -7 10 3 5 -4 6 -17 2 -17 -6 -21 -4 -14 6 6 11 5 12 -7
3 -8 -6 -26 -11 -41 -10 -14 1 -24 -2 -22 -6 3 -4 -2 -18 -10 -30 -9 -12 -16
-18 -16 -12 0 5 6 16 13 23 10 10 9 12 -3 9 -8 -2 -21 -12 -28 -23 -8 -12 -11
-14 -9 -4 3 9 -1 16 -9 16 -7 0 -10 -5 -7 -10 4 -7 -1 -8 -12 -3 -15 5 -16 4
-6 -8 9 -11 9 -16 0 -22 -8 -4 -9 -3 -5 4 4 7 1 12 -9 12 -10 0 -13 5 -9 12 5
7 3 8 -5 4 -7 -5 -10 -13 -8 -20 6 -15 -35 -16 -46 -2 -6 7 -7 4 -3 -6 3 -10
1 -20 -4 -23 -6 -4 -10 -1 -10 5 0 6 -5 8 -10 5 -8 -5 -8 -11 0 -20 8 -9 8
-15 0 -20 -6 -4 -9 -1 -8 6 2 6 -3 14 -11 17 -8 2 -11 0 -8 -5 6 -10 0 -12
-46 -15 -13 -1 -24 -8 -24 -15 0 -10 4 -10 16 -1 13 10 13 9 -1 -6 -16 -19
-44 -13 -32 6 5 7 2 8 -5 4 -7 -5 -10 -10 -7 -13 3 -4 -4 -14 -16 -24 -25 -22
-35 -25 -19 -5 9 11 9 16 0 22 -7 4 -9 3 -6 -3 4 -6 0 -17 -9 -24 -14 -12 -14
-14 3 -21 13 -6 10 -7 -9 -3 -15 3 -30 0 -33 -5 -4 -6 -12 -7 -18 -3 -8 4 -7
1 1 -9 9 -11 10 -18 2 -23 -6 -3 -7 -11 -4 -17 4 -7 2 -8 -5 -4 -6 4 -9 12 -6
17 4 5 2 9 -4 9 -5 0 -15 -8 -20 -17 -9 -16 -12 -16 -21 -3 -8 11 -9 8 -4 -12
4 -18 2 -28 -6 -28 -6 0 -8 5 -4 12 5 7 3 8 -5 4 -7 -5 -10 -15 -7 -23 4 -11
2 -13 -9 -9 -8 3 -15 1 -15 -5 0 -6 -5 -7 -12 -3 -7 4 -8 3 -4 -5 4 -6 12 -8
18 -5 7 5 8 2 4 -5 -5 -7 -14 -10 -21 -7 -19 7 -27 -5 -13 -21 8 -11 7 -12 -5
-8 -18 8 -32 -11 -16 -21 8 -5 9 -3 4 6 -5 9 -4 11 4 6 17 -11 4 -25 -19 -21
-11 2 -23 -1 -26 -7 -5 -7 -2 -8 6 -3 9 6 10 2 5 -15 -5 -15 -3 -20 3 -16 6 3
14 1 18 -5 4 -7 3 -9 -3 -6 -14 9 -41 -24 -38 -46 2 -9 -1 -15 -6 -11 -5 3 -7
9 -4 14 3 4 -2 10 -10 13 -11 5 -12 1 -4 -20 8 -23 8 -24 -6 -13 -13 11 -14
10 -9 -4 3 -9 0 -24 -7 -33 -10 -12 -10 -15 -2 -9 7 4 13 2 13 -3 0 -6 -5 -11
-11 -11 -7 0 -10 -12 -7 -29 2 -17 2 -28 -1 -27 -3 2 -11 -2 -18 -9 -10 -10
-9 -15 4 -19 14 -6 14 -8 -3 -21 -13 -10 -14 -13 -3 -10 10 4 16 0 16 -9 0 -8
-4 -13 -8 -11 -15 10 -18 -25 -3 -40 9 -8 11 -15 6 -15 -18 0 -20 -60 -3 -70
9 -5 11 -10 5 -10 -7 0 -15 -7 -18 -16 -5 -14 -4 -15 9 -4 9 8 15 9 15 2 0 -6
-8 -16 -17 -22 -17 -11 -17 -11 0 -6 9 3 17 1 17 -4 0 -6 -6 -10 -12 -10 -7 0
-2 -7 10 -16 12 -8 22 -20 22 -26 0 -7 -6 -3 -14 7 -13 18 -14 18 -9 -8 3 -15
9 -24 14 -21 5 3 9 -6 9 -20 0 -13 6 -27 13 -29 9 -4 9 -6 0 -6 -6 -1 -18 8
-26 19 -12 18 -15 18 -20 6 -4 -9 -1 -15 6 -13 7 1 11 -4 9 -11 -1 -8 1 -11 6
-8 4 2 14 1 22 -5 10 -6 11 -9 3 -9 -7 0 -13 -4 -13 -10 0 -5 6 -7 13 -4 8 3
14 -2 14 -10 0 -8 -3 -13 -7 -11 -3 2 -6 -5 -6 -15 0 -10 3 -17 6 -15 3 2 14
-4 25 -12 20 -15 20 -15 -1 -11 -13 4 -21 0 -21 -9 0 -8 7 -11 19 -7 10 3 18
1 18 -5 0 -6 -5 -11 -12 -11 -6 0 -2 -8 10 -18 14 -12 18 -22 12 -28 -7 -7 0
-9 18 -8 19 1 29 -3 29 -12 0 -10 -4 -11 -13 -3 -8 7 -14 6 -20 -2 -4 -7 -3
-9 4 -5 6 3 13 -2 17 -13 9 -28 41 -62 51 -53 4 4 2 -2 -6 -12 -12 -16 -12
-18 -1 -11 11 6 13 2 9 -17 -5 -26 12 -33 29 -13 4 4 3 5 -3 2 -6 -3 -11 0
-11 8 0 8 4 15 9 15 8 0 12 -15 8 -39 -1 -11 2 -12 12 -5 8 5 5 1 -7 -10 l-20
-19 23 7 c13 5 22 3 22 -3 0 -6 -5 -11 -10 -11 -6 0 2 -13 17 -30 20 -23 29
-27 40 -19 16 14 16 8 1 -26 -6 -14 -18 -25 -25 -25 -8 0 -11 5 -7 12 4 7 3 8
-5 4 -6 -4 -9 -12 -6 -17 4 -5 -3 -9 -14 -9 -12 0 -21 -4 -21 -9 0 -4 -11 -7
-25 -6 -16 2 -23 -1 -18 -7 4 -7 -2 -9 -15 -6 -15 4 -25 0 -32 -10 -5 -10 -10
-12 -10 -5 0 14 -33 10 -38 -5 -2 -8 -9 -9 -23 -2 -15 9 -18 8 -12 -7 6 -16 4
-16 -17 2 l-23 20 13 -25 c12 -22 11 -23 -2 -13 -12 10 -18 10 -33 -1 -11 -8
-25 -12 -32 -9 -7 3 -13 0 -13 -7 0 -6 -4 -8 -10 -5 -5 3 -10 1 -10 -5 0 -6
-4 -9 -9 -5 -5 3 -12 1 -16 -5 -4 -7 1465 -10 4547 -9 2504 0 4547 3 4541 6
-7 2 -14 3 -15 1 -7 -7 -35 28 -30 37 3 6 -2 4 -11 -4 -11 -9 -17 -10 -17 -2
0 6 -12 11 -26 11 -14 0 -23 4 -19 10 3 6 1 10 -4 10 -6 0 -11 -4 -11 -8 0 -5
-7 -9 -15 -9 -9 0 -14 6 -11 13 3 8 -2 10 -16 6 -12 -3 -19 -1 -15 4 3 6 -4
10 -16 11 -62 1 -78 4 -73 11 8 13 -27 11 -43 -2 -12 -9 -12 -8 -3 10 9 16 8
21 -3 21 -8 0 -12 -4 -9 -9 3 -4 0 -8 -5 -8 -6 0 -11 5 -11 10 0 6 -12 10 -26
10 -17 0 -23 4 -18 13 6 9 5 9 -7 0 -12 -10 -18 -10 -29 0 -10 9 -11 9 -6 0 5
-9 2 -11 -8 -7 -9 3 -13 10 -10 15 3 5 -3 6 -12 2 -12 -4 -15 -3 -10 5 5 9 0
9 -19 2 -20 -8 -27 -7 -32 6 -4 11 -8 12 -13 4 -5 -8 -12 -7 -23 4 -10 11 -18
12 -22 6 -5 -8 -12 -7 -23 2 -10 8 -13 8 -9 1 8 -13 -18 -12 -30 2 -4 4 -2 5
6 0 9 -5 12 -4 8 3 -4 5 -17 8 -29 4 -15 -3 -19 -2 -14 7 4 6 4 11 -1 10 -4
-1 -25 -1 -46 0 -28 1 -36 4 -31 14 5 7 0 6 -11 -3 -10 -8 -16 -10 -12 -4 4 7
0 15 -9 18 -10 4 -13 2 -8 -7 6 -9 5 -9 -7 0 -11 9 -19 9 -26 2 -8 -8 -13 -7
-18 2 -6 8 -4 10 5 4 9 -5 11 -4 6 4 -4 6 -13 11 -19 10 -24 -3 -36 1 -53 18
-17 17 -18 17 -11 -1 6 -15 5 -17 -6 -8 -8 7 -17 9 -20 5 -4 -3 -7 0 -7 8 0
11 -2 11 -10 -1 -6 -10 -10 -11 -10 -2 0 6 -5 12 -11 12 -5 0 -7 -4 -4 -10 3
-6 -1 -7 -9 -4 -9 3 -16 10 -16 15 0 5 -5 9 -11 9 -5 0 -7 -6 -3 -13 6 -9 5
-9 -8 1 -8 7 -33 11 -56 9 -22 -2 -41 -1 -40 2 2 19 -4 24 -12 11 -8 -13 -10
-12 -10 4 0 19 0 19 -21 0 -11 -10 -20 -14 -19 -9 4 19 0 38 -6 32 -4 -3 -16
-1 -28 5 -18 9 -19 9 -11 -3 6 -8 2 -7 -7 3 -9 11 -19 14 -23 9 -3 -6 -12 -8
-20 -5 -8 4 -12 11 -8 17 3 6 1 7 -5 3 -6 -4 -27 0 -47 8 -19 8 -43 12 -52 9
-12 -5 -14 -3 -8 8 8 12 6 12 -8 0 -11 -9 -17 -10 -17 -2 0 6 -9 11 -21 11
-13 0 -18 4 -13 13 6 9 4 9 -7 2 -8 -6 -21 -10 -29 -9 -8 1 -21 2 -28 3 -7 0
-11 5 -8 10 3 4 -8 7 -25 5 -20 -3 -28 0 -23 7 4 8 -8 10 -40 8 -36 -3 -46 -1
-46 11 0 12 -2 13 -9 1 -7 -11 -9 -11 -13 0 -3 9 -17 13 -41 11 -20 -2 -37 1
-37 6 0 6 -13 9 -30 8 -21 -2 -30 2 -30 13 0 14 -1 14 -10 1 -8 -12 -10 -12
-10 -1 0 10 -3 11 -14 2 -10 -9 -16 -7 -27 5 -12 14 -14 14 -26 -2 -12 -16
-13 -16 -13 -1 0 10 -5 14 -15 11 -8 -4 -15 -2 -15 3 0 5 -7 10 -15 10 -12 0
-12 -3 -3 -16 11 -14 11 -15 -7 -1 -11 9 -32 15 -47 14 -24 -1 -26 1 -15 14
10 13 9 14 -10 3 -17 -9 -23 -9 -23 0 0 8 -4 8 -15 -1 -9 -8 -15 -9 -15 -2 0
6 -9 9 -20 7 -13 -2 -20 2 -20 11 0 8 -5 12 -10 9 -6 -4 -8 -11 -5 -16 3 -5
-1 -6 -9 -3 -9 3 -14 9 -11 13 2 4 -2 8 -10 8 -8 0 -12 -4 -10 -8 7 -10 -22
-5 -32 6 -4 4 -1 5 7 1 8 -4 6 0 -4 8 -14 12 -23 13 -33 5 -9 -9 -13 -8 -13 0
0 8 -5 9 -19 1 -11 -5 -22 -6 -25 -1 -3 5 -16 9 -28 9 -35 0 -52 6 -66 22 -8
8 -11 10 -8 3 4 -6 2 -14 -4 -18 -5 -3 -10 -1 -10 5 0 7 -6 8 -19 0 -14 -7
-22 -7 -27 2 -5 7 -3 8 6 3 9 -5 11 -4 6 4 -6 9 -11 9 -21 1 -10 -8 -14 -7
-18 2 -3 8 -6 5 -6 -6 -1 -20 -1 -20 -16 0 -11 14 -15 16 -15 4 0 -12 -4 -10
-15 4 -8 11 -15 16 -15 10 0 -5 -11 -10 -25 -10 -17 -1 -25 3 -26 15 0 9 -3
11 -5 5 -5 -13 -54 -6 -54 7 0 5 -5 9 -11 9 -5 0 -8 -4 -5 -9 4 -5 -5 -4 -19
2 -30 15 -41 37 -17 37 13 0 14 2 3 9 -10 6 -10 10 -1 16 9 6 9 10 -1 16 -12
8 -11 11 1 19 13 8 9 13 -10 12 -3 0 -5 15 -5 33 0 18 3 31 7 29 5 -3 5 -11 2
-17 -4 -7 -3 -8 2 -4 5 5 9 46 9 92 0 72 -2 82 -15 72 -11 -9 -10 -5 3 15 12
19 14 29 5 34 -7 5 -8 3 -3 -6 6 -9 4 -11 -5 -5 -10 6 -9 11 5 22 18 13 18 13
-1 14 -10 0 -14 3 -7 5 8 4 9 14 3 35 -5 17 -5 29 1 29 5 0 9 5 9 11 0 5 -4 7
-10 4 -6 -3 -7 1 -4 9 3 9 11 13 18 9 6 -3 3 3 -7 14 -18 21 -18 22 0 32 12 7
13 10 4 11 -10 0 -11 3 -2 14 9 11 9 16 -1 23 -7 4 -13 18 -14 30 0 17 2 20
12 12 11 -9 11 -4 4 20 -5 17 -5 29 -1 27 10 -6 8 55 -2 71 -5 8 -3 13 5 13
10 0 9 3 -2 10 -8 5 -11 12 -8 15 4 4 3 18 -2 31 -6 15 -5 26 2 30 7 5 8 3 3
-6 -5 -9 -4 -11 4 -6 9 6 9 11 0 22 -6 8 -9 23 -6 34 3 11 0 23 -5 26 -7 4 -1
14 13 26 20 15 21 17 4 12 -16 -6 -18 -4 -8 6 9 10 8 19 -5 39 -13 20 -13 23
-2 14 13 -9 15 -7 14 16 0 15 -4 34 -9 41 -5 8 -4 11 3 6 14 -9 9 18 -7 38
-12 14 -12 16 3 10 9 -3 16 -1 16 5 0 6 -6 11 -12 11 -9 0 -8 4 2 11 11 8 12
12 3 16 -7 2 -13 9 -13 14 0 6 3 8 8 6 4 -3 7 8 7 24 1 16 -4 29 -10 29 -5 0
-3 5 5 11 11 8 12 12 3 16 -7 2 -13 9 -13 14 0 6 6 7 13 3 9 -6 9 -4 -1 8 -10
13 -10 17 0 21 7 3 4 6 -7 6 -17 1 -17 3 -5 11 18 11 20 28 7 54 -6 13 -6 16
2 12 18 -11 13 6 -6 20 -14 11 -15 13 -2 9 10 -4 16 0 16 10 0 8 -7 15 -16 15
-13 0 -14 2 -2 9 8 5 16 17 17 25 1 9 -1 14 -5 11 -5 -2 -8 9 -7 24 1 16 4 27
9 24 12 -7 8 22 -5 36 -10 11 -10 13 0 7 7 -5 12 -1 12 9 0 9 -5 13 -11 9 -7
-4 -6 3 2 17 7 13 12 24 12 24 0 0 -5 10 -12 23 -6 12 -8 22 -3 22 5 0 9 7 9
15 0 8 -4 12 -9 9 -4 -3 -8 0 -8 5 0 6 6 11 13 11 6 0 4 5 -5 11 -10 5 -18 15
-18 22 0 8 3 8 9 -1 6 -11 10 -10 15 4 4 10 1 21 -6 26 -11 6 -10 8 0 8 8 0
10 5 5 13 -12 19 -12 37 -1 37 6 0 4 7 -3 17 -8 9 -9 14 -3 10 6 -3 11 0 11 8
0 8 -4 12 -8 9 -4 -2 -7 5 -6 16 1 11 6 20 12 20 5 0 3 5 -5 10 -10 6 -11 10
-2 10 6 0 12 5 12 11 0 5 -4 8 -9 4 -10 -6 -6 33 4 43 2 3 -1 12 -8 20 -6 9
-7 13 -2 10 7 -4 11 7 11 27 0 18 -4 31 -8 29 -4 -3 -8 0 -8 6 0 6 7 13 15 16
12 5 13 9 4 20 -10 12 -8 13 6 7 14 -5 17 -3 13 9 -5 11 1 14 23 13 24 -1 27
1 17 12 -6 8 -7 13 -2 12 28 -5 46 2 40 17 -3 8 -2 12 4 9 6 -3 10 0 10 7 0
10 2 10 9 -1 6 -9 11 -10 15 -2 4 6 4 11 0 11 -10 0 17 30 39 42 15 8 18 7 12
-3 -5 -8 -4 -10 3 -5 7 4 12 13 12 21 0 8 5 17 12 21 7 5 8 3 3 -6 -5 -9 -4
-11 3 -6 7 4 12 14 12 22 0 8 7 14 15 14 19 0 57 41 51 57 -3 7 1 10 8 7 7 -3
21 4 31 16 13 14 14 20 5 20 -7 0 -10 3 -7 6 4 4 13 1 22 -6 13 -11 14 -10 9
4 -4 12 -1 16 15 16 14 0 19 5 15 15 -5 11 -2 13 12 8 13 -5 16 -3 11 10 -4
11 -2 14 9 10 13 -5 20 14 15 41 -1 5 5 4 13 -3 13 -11 15 -10 11 8 -3 14 0
19 7 15 8 -5 9 -1 5 10 -6 14 -4 15 14 5 12 -6 19 -7 16 -2 -3 5 3 17 14 27
12 9 18 23 15 31 -3 9 0 12 8 9 8 -3 17 0 21 5 3 6 11 8 17 5 7 -4 8 -2 4 5
-6 9 -12 9 -24 -1 -15 -12 -16 -11 -4 4 8 10 20 14 30 11 15 -6 16 -5 2 12
-14 17 -13 18 3 12 17 -6 21 2 17 33 -1 11 3 9 15 -5 9 -11 13 -14 10 -7 -4 8
1 20 11 28 11 9 14 13 9 10 -6 -2 -11 4 -11 14 0 14 3 16 13 8 12 -10 17 -4
14 16 -1 5 6 3 15 -5 16 -13 16 -12 5 9 -10 19 -9 22 7 22 23 0 42 19 42 43 0
10 4 16 9 13 5 -4 8 2 6 11 -3 23 14 45 29 36 6 -4 4 2 -4 12 -14 17 -14 18 7
7 19 -10 20 -9 15 10 -4 17 -2 20 12 15 14 -6 15 -4 5 16 -11 20 -11 21 5 8
16 -13 17 -13 14 0 -1 8 0 14 4 14 12 0 34 37 42 68 4 15 10 25 15 22 5 -2 12
2 15 11 9 22 8 26 -6 18 -7 -5 -8 -3 -4 5 5 7 15 10 23 6 14 -5 14 -3 2 12
-12 14 -12 16 0 8 11 -6 13 -3 8 14 -5 19 -3 21 11 9 9 -7 14 -9 10 -4 -4 5 0
15 8 23 11 11 12 18 3 29 -8 10 -7 12 9 9 16 -3 20 1 17 15 -2 12 1 17 9 14 7
-3 13 2 13 10 0 8 -4 13 -9 10 -4 -3 -8 0 -8 7 0 6 8 9 20 6 17 -4 18 -2 9 15
-9 16 -8 19 2 13 9 -6 11 -3 6 8 -6 15 3 21 25 18 3 0 3 13 -2 29 -8 28 -7 29
12 19 16 -9 19 -8 13 2 -5 7 -1 17 10 26 11 7 14 13 8 13 -7 0 -15 -5 -18 -10
-3 -6 -12 -10 -18 -10 -7 0 -4 5 6 11 9 5 17 17 17 24 0 8 7 15 16 15 8 0 13
4 9 9 -3 6 3 15 12 21 13 9 14 10 2 7 -9 -3 -16 1 -16 9 0 8 2 12 5 10 7 -8
30 19 24 28 -3 5 2 6 12 3 14 -6 15 -3 6 13 -8 15 -8 20 1 18 6 -2 14 3 17 11
3 9 0 11 -9 6 -8 -5 -11 -4 -6 1 5 5 12 9 15 9 4 0 13 4 20 9 11 6 10 12 -2
31 -12 17 -13 26 -4 31 6 4 8 3 4 -4 -3 -6 -2 -13 4 -17 5 -3 10 -1 10 5 0 6
4 9 9 6 4 -3 6 6 3 21 -3 15 -1 24 5 20 5 -3 9 4 9 16 -1 14 4 21 13 19 10 -2
12 1 5 10 -6 7 -9 19 -8 26 1 6 2 16 3 22 0 5 9 6 19 3 15 -6 15 -5 3 10 -9
11 -10 17 -2 17 6 0 11 7 11 15 0 8 10 19 21 26 17 9 19 13 8 20 -11 7 -9 9 8
9 12 0 25 4 28 10 3 6 -1 7 -12 4 -17 -5 -17 -5 0 6 9 6 15 15 12 20 -3 4 4 6
15 3 19 -5 26 5 21 31 -1 5 5 4 13 -3 9 -7 13 -18 9 -24 -3 -6 -1 -7 6 -3 6 4
9 11 6 16 -5 9 8 24 49 58 15 12 21 8 16 -13 -1 -5 2 -6 6 -2 4 4 9 15 10 25
2 9 8 18 13 20 6 2 11 10 11 17 0 8 5 17 12 21 7 5 8 2 3 -7 -5 -8 4 -3 19 11
14 13 24 30 22 37 -3 7 -2 13 2 13 5 0 17 7 28 16 10 8 14 13 7 10 -6 -4 -15
-1 -19 5 -4 8 -3 9 4 5 7 -4 12 -3 12 3 0 6 7 8 16 4 14 -5 15 -3 6 14 -9 15
-8 20 3 20 8 0 12 -5 9 -11 -3 -6 3 0 14 14 16 18 18 28 10 38 -6 7 -7 12 -2
11 5 -1 16 -1 24 0 13 1 13 2 0 11 -13 8 -12 10 4 10 13 0 16 5 12 17 -4 10
-4 14 0 10 4 -4 13 -2 21 4 11 10 11 15 1 27 -10 13 -10 14 0 8 17 -10 38 4
21 15 -11 7 -10 9 4 9 9 0 17 7 17 15 0 7 8 19 18 24 9 6 12 11 5 11 -6 0 -19
-10 -27 -22 -9 -12 -16 -17 -16 -11 0 7 5 15 10 18 6 4 7 12 4 18 -4 7 -4 9 1
5 16 -14 42 11 39 37 -1 16 3 28 12 32 8 3 11 9 8 14 -3 5 2 9 12 9 14 0 14 3
4 16 -8 8 -9 14 -4 13 21 -4 28 2 14 12 -12 9 -11 10 8 6 12 -3 20 -2 18 2 -3
4 1 19 8 32 7 14 13 31 14 39 0 8 3 24 6 35 2 11 5 23 5 28 1 4 8 7 16 7 8 0
15 5 15 11 0 5 5 7 10 4 6 -3 10 -1 10 4 0 6 -6 11 -12 11 -9 0 -8 3 2 9 8 6
18 7 24 4 5 -3 6 -1 2 6 -4 6 -11 9 -15 7 -4 -3 -8 1 -8 9 0 8 4 12 9 9 4 -3
9 2 9 10 3 30 4 34 13 43 5 5 6 3 2 -4 -4 -7 -2 -13 3 -13 15 0 14 13 -1 29
-11 11 -10 12 1 6 11 -6 13 -4 8 8 -4 12 -1 17 11 17 15 0 15 2 2 10 -13 9
-13 12 3 21 14 8 16 14 6 25 -7 9 -8 18 -2 27 14 18 24 49 14 42 -5 -3 -8 3
-6 12 1 10 10 17 20 16 12 -1 14 2 6 10 -13 13 -15 31 -3 23 4 -2 8 6 8 19 0
13 -4 21 -8 19 -5 -3 -5 -10 -2 -16 5 -7 2 -8 -5 -4 -9 6 -8 13 5 27 9 11 14
22 11 26 -4 3 0 17 9 31 9 13 11 21 5 18 -6 -4 -11 0 -11 8 0 9 5 16 11 16 8
0 7 6 -2 17 -11 14 -11 15 -1 9 10 -6 13 -3 10 10 -2 11 3 25 12 32 13 12 13
13 -5 8 -19 -6 -19 -5 2 12 14 12 18 23 13 32 -4 7 -6 19 -3 26 2 7 -1 23 -7
36 -11 22 -11 23 5 3 17 -20 17 -20 10 3 -4 13 -2 29 5 37 6 8 9 19 5 25 -3 5
-1 10 5 10 7 0 8 6 0 19 -8 16 -6 23 12 35 12 9 17 16 10 16 -6 0 -12 7 -12
16 0 9 5 12 13 8 10 -6 10 -4 0 7 -7 7 -13 17 -13 22 0 4 6 5 13 1 9 -5 9 -4
-1 7 -10 11 -7 17 15 36 16 13 24 23 18 22 -24 -3 -27 2 -9 17 10 8 13 13 7 9
-18 -9 -16 5 4 27 16 18 16 18 -3 12 -19 -7 -19 -7 0 15 20 22 20 22 0 16 -17
-6 -17 -6 -1 5 9 6 23 8 30 5 6 -4 3 0 -7 9 -17 13 -17 18 -5 33 9 11 10 14 2
9 -7 -4 -13 -2 -13 3 0 6 5 11 11 11 8 0 7 6 -2 17 -10 11 -10 14 -1 9 6 -4
12 -3 12 1 0 5 -6 15 -12 22 -11 10 -9 11 5 5 17 -6 18 -5 5 16 -10 18 -10 24
0 27 6 3 9 9 6 14 -3 6 0 17 8 26 9 12 9 15 1 9 -9 -5 -11 -2 -7 8 3 9 9 14
13 11 4 -2 8 2 8 10 0 8 -4 12 -9 9 -4 -3 -5 9 -1 27 5 25 3 30 -7 24 -9 -5
-11 -4 -6 3 4 7 15 12 24 12 13 0 13 2 -4 15 -18 15 -18 15 0 8 14 -4 17 -3
12 6 -4 6 -2 19 6 28 7 9 8 14 2 10 -13 -8 -41 20 -30 30 3 3 6 2 6 -4 0 -5 6
-10 14 -10 8 0 12 6 9 14 -3 7 -13 13 -22 13 -13 0 -13 2 -2 9 8 5 9 11 3 15
-12 7 -4 48 12 58 7 5 6 8 -4 8 -13 0 -13 1 0 10 12 8 12 10 1 10 -11 0 -11 3
0 17 12 14 12 16 0 8 -11 -6 -12 -5 -5 6 11 19 13 58 2 65 -4 3 -8 10 -8 15 0
6 6 7 13 3 9 -6 9 -4 -1 8 -10 13 -10 17 0 21 10 4 10 6 -1 6 -11 1 -11 4 -1
16 13 16 4 39 -12 29 -7 -4 -8 -2 -4 5 4 6 13 8 19 5 9 -5 9 -4 0 6 -9 10 -9
19 3 42 13 26 13 29 -2 35 -16 6 -16 7 2 14 18 7 18 8 0 8 -15 1 -16 4 -7 15
9 11 9 15 -1 19 -10 4 -10 8 2 16 13 9 13 11 1 11 -11 0 -9 4 5 15 12 9 13 13
4 10 -11 -4 -16 1 -17 15 -1 11 4 20 10 20 7 0 6 4 -3 10 -8 5 -11 10 -7 10 4
0 2 10 -4 23 -12 21 -11 21 7 7 18 -15 18 -14 1 13 -10 15 -14 27 -10 26 20
-3 27 2 13 11 -13 9 -13 10 0 10 13 0 13 1 0 10 -12 8 -12 10 -1 10 11 0 11 3
1 15 -11 13 -10 14 6 8 17 -6 18 -5 4 11 -16 21 -25 60 -11 51 5 -3 12 -1 15
4 4 5 2 12 -4 16 -6 4 -7 11 -4 17 4 6 2 8 -3 5 -6 -4 -13 0 -16 8 -4 10 -1
12 11 8 15 -6 16 -5 2 12 -8 10 -10 16 -3 12 6 -4 14 -3 18 3 3 5 -1 10 -9 10
-20 0 -29 17 -15 26 8 5 9 3 4 -7 -5 -8 -4 -10 0 -6 12 10 16 39 5 32 -5 -3
-11 -1 -15 5 -3 5 -2 10 4 10 6 0 8 7 5 15 -4 8 -1 15 6 15 6 0 8 5 5 10 -4 6
-11 7 -17 4 -6 -4 -8 1 -3 15 4 12 2 21 -4 21 -6 0 -11 5 -11 11 0 5 3 8 8 6
4 -3 13 2 21 10 12 13 11 14 -8 8 -23 -7 -23 -7 -4 21 10 16 12 25 6 21 -8 -5
-13 -3 -13 7 0 8 5 18 12 22 7 5 8 3 3 -6 -5 -9 -4 -11 4 -6 9 6 9 11 0 22 -6
7 -14 12 -18 9 -4 -2 -7 10 -7 26 1 16 8 34 16 39 13 8 12 10 -4 10 -11 0 -16
5 -13 14 3 7 0 19 -6 25 -9 9 -8 11 6 6 10 -4 17 -2 17 4 0 6 -5 11 -12 11 -6
0 -8 3 -5 7 4 3 2 12 -4 20 -9 10 -8 13 1 13 10 0 10 3 0 15 -11 13 -10 14 2
10 11 -4 15 1 14 19 -1 14 -6 29 -10 33 -5 4 -6 3 -3 -3 3 -6 0 -11 -8 -11
-11 0 -12 4 -4 13 6 7 11 28 13 46 1 18 6 40 11 48 8 13 7 13 -8 1 -9 -7 -14
-18 -10 -24 3 -5 1 -7 -5 -4 -5 4 -8 17 -4 29 4 15 2 19 -7 13 -10 -6 -11 -3
-2 14 7 11 9 21 6 21 -3 0 -1 10 6 21 6 12 7 19 2 16 -5 -3 -14 8 -20 24 -10
26 -10 29 3 18 12 -10 13 -9 8 5 -3 9 -10 16 -16 16 -5 0 -7 22 -5 49 1 28 0
48 -4 45 -4 -2 -10 3 -13 12 -3 8 -2 13 2 10 5 -3 9 1 9 9 0 8 -5 11 -10 8 -6
-4 -8 5 -5 20 3 15 2 24 -2 22 -4 -3 -13 2 -20 10 -11 13 -10 14 1 10 11 -4
15 3 14 29 0 23 -4 31 -11 26 -7 -6 -10 6 -8 40 1 30 -3 48 -9 47 -7 -1 -11
14 -10 36 1 26 -2 35 -10 30 -7 -4 -6 1 2 10 11 14 11 17 0 17 -10 0 -10 3 -2
11 9 9 9 18 -1 38 -7 14 -12 34 -11 44 2 9 -1 15 -6 11 -5 -3 -9 15 -9 40 0
27 -5 46 -11 46 -6 0 -9 9 -6 20 3 12 -1 24 -11 30 -14 8 -14 9 -2 10 12 0 13
2 1 9 -9 6 -10 11 -3 15 16 9 3 36 -17 36 -14 0 -14 2 -1 10 11 7 11 10 2 10
-7 0 -11 4 -7 9 3 5 -2 16 -11 25 -8 9 -13 20 -9 25 3 5 0 13 -6 16 -5 4 -8
13 -5 21 3 8 2 14 -3 14 -12 0 -9 33 4 42 6 4 0 8 -12 8 -13 0 -23 5 -23 11 0
5 6 7 13 3 8 -6 8 -3 -1 9 -8 9 -10 22 -6 29 5 8 1 8 -11 -2 -17 -14 -18 -14
-8 4 8 15 7 23 -3 33 -7 8 -11 19 -8 27 3 7 -2 18 -10 25 -8 7 -12 19 -9 27 3
8 -1 22 -8 31 -10 12 -10 15 -1 9 7 -4 12 -2 12 5 0 7 -9 9 -22 6 -20 -5 -21
-4 -7 6 11 8 14 19 9 32 -4 11 -6 23 -3 27 2 4 -2 5 -10 2 -11 -4 -13 1 -10
20 3 16 1 26 -6 26 -9 0 -9 5 0 21 10 19 9 20 -11 14 -18 -6 -21 -4 -14 6 14
23 13 40 -3 46 -12 5 -12 7 -1 14 10 7 9 9 -4 9 -10 0 -18 5 -18 11 0 5 5 7
11 3 8 -5 8 -1 0 13 -6 11 -7 23 -4 27 3 3 -1 6 -10 6 -9 0 -16 3 -16 8 4 21
-2 32 -13 26 -9 -5 -9 -2 1 9 10 13 10 17 1 17 -7 0 -10 7 -6 15 3 10 -1 15
-11 15 -14 0 -14 2 3 15 16 13 16 14 2 9 -13 -4 -18 -1 -18 11 0 10 -4 13 -12
9 -10 -6 -10 -4 0 8 8 10 9 17 3 20 -6 1 -12 15 -13 30 -2 22 -5 25 -17 15
-12 -9 -13 -9 -7 1 4 7 2 12 -5 12 -8 0 -7 5 2 17 10 11 10 14 2 9 -9 -4 -13
-1 -13 9 0 11 -5 15 -14 12 -10 -4 -13 -1 -9 8 3 8 10 12 16 8 6 -3 7 -1 3 5
-4 7 -14 12 -22 12 -8 0 -13 3 -13 8 4 25 -2 42 -13 36 -8 -5 -8 -2 1 10 12
15 12 17 0 14 -8 -2 -13 4 -13 14 1 10 -3 15 -9 11 -6 -4 -8 0 -4 10 5 13 1
17 -16 17 -18 0 -19 2 -7 10 12 7 12 10 1 10 -8 0 -11 6 -7 16 3 8 2 12 -4 9
-6 -3 -10 1 -10 10 0 10 -5 13 -12 9 -10 -6 -10 -5 -1 7 10 12 8 18 -8 32 -11
10 -17 22 -14 27 4 6 -1 7 -12 3 -16 -6 -17 -5 -3 12 9 11 10 16 3 11 -9 -5
-13 0 -13 14 0 11 -8 24 -17 27 -15 6 -15 7 3 14 17 7 17 8 -3 8 -13 1 -22 4
-22 9 1 4 1 14 0 22 -1 13 -2 13 -12 0 -8 -12 -9 -11 -4 6 3 12 0 28 -7 35 -7
8 -15 25 -17 39 -1 13 -12 32 -22 41 -15 13 -16 18 -7 22 8 3 6 6 -5 6 -10 1
-15 6 -12 11 3 6 1 10 -4 10 -6 0 -11 5 -11 11 0 5 6 7 13 4 6 -4 4 0 -6 8
-12 10 -14 16 -6 19 7 2 5 9 -7 18 -16 13 -17 13 -9 0 4 -8 4 -12 0 -7 -9 7
-15 28 -17 55 -1 7 -6 11 -13 9 -6 -3 -12 4 -12 16 -1 11 -7 23 -13 27 -7 4
-11 10 -11 14 3 20 -1 26 -15 26 -8 0 -12 5 -9 10 3 6 1 10 -5 10 -6 0 -8 5
-4 11 3 6 -4 21 -18 33 -13 11 -18 17 -11 12 21 -14 15 1 -12 28 -14 14 -25
29 -25 34 0 6 -13 24 -29 41 -16 17 -31 38 -35 46 -3 8 -11 14 -18 13 -7 -2
-12 7 -13 19 0 12 -4 25 -9 30 -5 5 -6 2 -2 -7 5 -9 2 -8 -7 2 -8 10 -16 15
-19 13 -3 -3 -4 6 -3 20 2 14 0 23 -5 20 -4 -3 -19 4 -31 16 -13 11 -18 18
-12 14 9 -4 11 -1 7 9 -6 15 -17 20 -36 17 -4 0 -5 6 -2 14 4 10 0 15 -11 15
-9 0 -13 5 -10 10 3 6 0 10 -7 10 -9 0 -9 3 2 10 13 9 13 10 0 11 -8 1 -19 1
-23 0 -4 -1 -3 8 3 19 6 11 7 20 3 19 -20 -3 -34 2 -28 11 3 6 -3 10 -15 10
-12 0 -18 5 -15 10 3 6 1 10 -5 10 -6 0 -18 7 -27 15 -8 8 -19 12 -25 9 -7 -4
-8 -2 -4 4 5 8 -1 12 -14 12 -12 0 -19 4 -16 9 3 5 -2 15 -11 22 -9 8 -14 9
-10 3 3 -6 -1 -11 -10 -11 -9 0 -18 9 -21 19 -2 10 -11 18 -18 18 -8 0 -14 4
-14 9 0 5 -8 8 -17 7 -11 0 -17 5 -15 13 2 8 -3 11 -12 8 -9 -4 -20 1 -25 11
-8 13 -10 13 -11 3 0 -11 -4 -10 -13 4 -8 10 -19 15 -26 11 -6 -4 -10 -4 -9 1
2 4 -1 9 -7 11 -5 2 -17 10 -26 18 -9 8 -19 11 -22 7 -4 -3 -7 -2 -7 4 0 5 -7
10 -15 11 -8 1 -22 3 -30 4 -8 1 -13 4 -11 7 1 3 -5 14 -15 23 -12 12 -19 13
-23 5 -2 -7 -5 -2 -5 10 -1 16 -6 21 -16 17 -8 -4 -15 -2 -15 4 0 6 -11 9 -25
7 -17 -1 -25 3 -25 13 0 11 -3 12 -14 3 -11 -9 -16 -9 -22 0 -5 8 -3 9 6 4 8
-5 11 -4 6 3 -6 11 -37 9 -56 -3 -6 -4 -9 -1 -8 6 3 14 -2 15 -65 17 -23 1
-36 6 -32 12 3 6 1 10 -4 10 -6 0 -11 -5 -11 -11 0 -8 -6 -7 -17 2 -14 12 -16
12 -9 -1 4 -8 -2 -4 -14 10 -12 14 -19 19 -15 13 4 -9 -2 -13 -20 -13 -18 0
-24 4 -19 13 5 9 4 9 -6 0 -9 -9 -19 -9 -33 -2 -15 8 -18 8 -12 -1 6 -9 2 -9
-14 0 -12 6 -50 10 -84 9 -69 -2 -89 1 -99 16 -5 6 -8 5 -8 -2 0 -16 -36 -17
-46 -1 -5 8 -11 6 -20 -6 -6 -9 -14 -13 -17 -9 -3 5 -18 8 -34 7 -15 -1 -41
-3 -56 -3 -20 -1 -26 -5 -21 -13 4 -7 -3 -4 -16 7 -13 11 -20 15 -17 8 5 -7 0
-9 -14 -6 -20 5 -20 7 -6 18 12 9 13 15 5 23 -8 8 -5 9 11 5 19 -5 26 4 22 29
0 4 6 5 14 2 8 -4 17 1 21 10 3 9 10 13 15 10 5 -3 9 2 9 11 0 9 5 13 10 10 6
-3 10 1 10 11 0 14 2 15 17 3 15 -13 15 -12 4 8 -10 19 -9 22 4 17 10 -4 15 0
15 11 0 11 5 15 16 11 8 -3 12 -2 9 4 -3 5 4 14 15 20 12 6 20 21 20 36 0 14
4 23 10 19 6 -4 7 -11 4 -17 -4 -7 -2 -8 5 -4 8 5 6 15 -9 33 -11 14 -17 30
-13 36 3 5 2 7 -3 4 -6 -3 -15 3 -22 14 -10 15 -10 19 0 17 7 -2 16 -7 20 -13
4 -5 8 3 8 18 0 16 4 26 10 22 6 -3 10 2 10 11 0 16 1 16 20 -1 11 -10 20 -13
20 -7 0 7 -4 12 -9 12 -5 0 -12 7 -15 16 -3 8 -2 13 2 10 4 -2 16 2 27 10 10
8 14 14 7 14 -6 0 -10 6 -8 13 1 6 1 9 -1 5 -3 -5 -9 -8 -14 -8 -5 0 -4 9 3
19 11 18 13 18 26 3 7 -9 11 -12 9 -7 -6 12 18 36 27 28 3 -4 6 -1 6 5 0 15
-13 15 -27 1 -8 -8 -13 -7 -18 3 -5 7 -5 10 0 6 4 -4 16 3 27 15 11 12 16 16
12 8 -5 -10 -3 -12 5 -7 9 6 8 13 -6 28 -18 21 -18 21 7 8 22 -12 24 -12 12 2
-9 11 -10 18 -2 23 6 3 7 11 4 17 -4 7 -2 8 5 4 9 -6 9 -11 0 -22 -8 -10 -8
-14 0 -14 10 0 15 13 12 33 0 4 4 7 10 7 8 0 7 5 -1 15 -11 13 -10 14 3 10 18
-8 32 11 16 21 -8 5 -9 3 -4 -6 5 -9 4 -11 -4 -6 -6 4 -9 12 -5 17 3 5 10 6
16 3 6 -4 8 -1 6 7 -3 8 -11 13 -17 11 -7 -1 -9 2 -6 8 5 8 13 6 25 -5 14 -12
20 -13 26 -4 4 8 3 10 -4 5 -15 -9 -15 -1 -2 25 8 14 7 19 -2 19 -8 0 -6 5 5
11 9 6 14 16 11 22 -4 7 -3 8 1 4 11 -10 16 -39 6 -32 -4 2 -8 -2 -8 -10 0
-19 5 -19 23 0 9 9 11 15 4 15 -6 0 -8 5 -5 10 4 6 11 8 16 4 5 -3 9 -2 8 3
-3 20 2 27 11 13 8 -12 10 -9 8 10 -2 16 2 24 10 22 8 -1 11 2 8 7 -4 5 -2 13
4 16 8 5 7 11 -1 21 -6 8 -8 14 -3 14 5 0 2 5 -6 10 -11 8 -8 9 11 4 15 -3 30
-1 33 5 4 7 1 8 -8 5 -9 -3 -16 -1 -16 5 0 6 5 11 11 11 6 0 9 7 5 15 -3 8 -2
14 2 14 19 -3 23 2 13 15 -9 11 -9 16 0 22 8 4 9 3 5 -4 -4 -7 -2 -12 5 -12 7
0 9 8 6 21 -4 14 -1 19 7 16 6 -3 22 4 35 14 13 11 18 19 13 19 -6 0 -14 -5
-18 -11 -4 -8 -9 -7 -14 2 -11 16 -1 39 16 39 8 0 14 5 14 11 0 5 -6 7 -12 3
-9 -6 -9 -3 0 9 8 9 10 22 6 28 -4 8 -3 9 4 5 7 -4 12 -1 12 6 1 8 6 6 15 -6
8 -11 15 -15 15 -9 0 7 -4 15 -10 18 -5 3 -10 11 -10 17 0 6 9 3 19 -6 14 -13
21 -14 27 -5 4 7 3 10 -4 5 -6 -3 -20 6 -31 20 -27 34 -27 55 -1 24 11 -13 22
-21 25 -18 3 3 -1 11 -10 18 -14 11 -13 14 2 27 10 8 13 12 6 9 -8 -5 -11 3
-9 21 1 20 7 27 19 25 10 -2 20 4 23 12 3 8 13 12 22 9 15 -4 15 -3 2 6 -11 8
-18 7 -26 -3 -7 -10 -15 -12 -25 -5 -10 6 -11 9 -1 9 7 0 10 5 6 12 -4 7 -3 8
4 4 11 -6 18 27 13 57 -2 11 13 8 29 -5 8 -7 7 -4 -3 8 -20 24 -22 38 -4 28 9
-5 9 -4 0 6 -20 22 13 53 41 39 20 -10 20 -9 3 5 -11 8 -26 12 -35 8 -14 -5
-15 -3 -5 10 7 8 10 18 6 22 -4 4 0 4 8 1 10 -4 16 0 16 9 0 8 -4 13 -8 10 -4
-2 -7 5 -6 16 1 11 5 20 9 20 4 0 8 7 8 16 0 8 -4 13 -9 9 -6 -3 -8 4 -5 17 3
13 6 29 8 36 1 8 8 17 15 21 10 6 9 10 -4 14 -10 5 -14 3 -9 -5 4 -7 3 -8 -4
-4 -9 5 -8 15 3 36 13 25 13 29 1 24 -18 -7 -16 17 3 40 10 12 11 16 1 16 -10
0 -10 3 0 15 11 13 10 14 -4 9 -12 -5 -15 -2 -10 10 3 9 11 13 18 9 6 -4 6 0
-2 9 -7 9 -11 28 -8 42 3 14 0 26 -5 26 -6 0 -7 5 -4 10 4 6 11 8 16 5 5 -3 6
1 3 9 -3 9 -11 13 -18 9 -6 -3 -2 4 9 17 11 13 15 20 8 17 -6 -4 -14 -3 -18 3
-3 5 -2 10 3 10 5 0 9 7 9 15 0 8 -4 15 -8 15 -4 0 -5 9 -2 20 3 11 10 17 17
14 6 -3 3 1 -6 9 -10 8 -15 16 -12 20 3 3 1 21 -4 40 -9 31 -8 35 6 30 10 -4
14 -2 9 2 -4 5 1 18 10 29 14 15 14 18 2 8 -9 -6 -20 -8 -24 -4 -5 4 -5 0 0
-8 6 -12 5 -12 -5 -3 -15 14 -20 93 -6 93 7 0 8 3 1 8 -22 16 -33 48 -23 67 7
12 7 16 0 11 -18 -11 -23 26 -5 40 17 12 16 13 -4 7 -20 -4 -23 -1 -23 21 0
14 -5 26 -11 26 -8 0 -9 4 0 13 13 16 5 27 -20 27 -13 0 -16 5 -12 17 4 11 3
14 -5 9 -8 -5 -10 -1 -5 10 4 12 3 15 -5 10 -8 -5 -10 -1 -5 10 5 13 3 15 -7
9 -10 -6 -12 -4 -7 9 4 9 3 14 -2 11 -5 -3 -12 -1 -16 5 -3 5 -1 10 4 10 6 0
11 4 11 10 0 5 -7 7 -16 3 -10 -4 -17 1 -21 16 -3 11 -10 18 -16 14 -6 -3 -7
-1 -3 5 4 6 12 10 19 8 7 -1 9 -1 5 1 -5 3 -8 12 -8 20 0 14 -3 13 -22 -3 -12
-10 -18 -14 -15 -7 4 6 4 13 0 16 -5 2 -3 3 3 1 6 -1 16 8 24 19 12 21 12 21
-5 7 -16 -14 -17 -13 -11 8 6 19 4 22 -19 22 -15 0 -24 4 -20 10 3 5 0 7 -8 4
-9 -3 -25 8 -42 30 -15 20 -31 34 -35 31 -4 -2 -6 6 -5 18 1 12 3 22 4 22 2 0
4 8 6 18 2 9 -1 15 -6 11 -5 -3 -7 -10 -4 -15 4 -5 -1 -9 -10 -9 -9 0 -15 6
-14 13 4 30 -2 39 -21 34 -11 -3 -18 -1 -15 3 9 15 -24 39 -47 35 -16 -4 -19
-2 -10 7 15 15 16 31 0 22 -7 -4 -8 -3 -4 5 4 6 11 9 16 6 5 -3 12 0 16 6 4 7
3 9 -4 5 -6 -3 -17 1 -25 9 -20 19 -33 20 -18 1 8 -10 9 -16 1 -21 -6 -4 -9
-1 -8 7 2 7 -6 13 -17 13 -12 0 -20 7 -19 16 1 10 -12 21 -33 28 -18 7 -31 16
-28 21 6 11 -19 20 -43 15 -11 -2 -19 2 -19 11 0 11 4 11 16 2 13 -10 14 -10
4 1 -6 7 -9 21 -5 30 5 14 3 14 -12 -1 -16 -17 -18 -17 -41 0 -12 9 -21 20
-18 25 2 4 -1 7 -7 7 -6 0 -8 5 -5 10 3 6 1 10 -5 10 -7 0 -9 -8 -5 -21 6 -19
5 -20 -8 -8 -11 10 -12 19 -5 33 7 13 7 16 -1 12 -6 -4 -11 0 -11 8 0 10 -9
16 -22 16 -19 0 -20 2 -8 10 13 9 13 10 0 11 -8 1 -18 1 -22 1 -3 -1 -9 5 -12
14 -4 10 -1 13 7 9 6 -4 4 0 -5 8 -19 15 -25 32 -8 22 6 -3 7 1 4 9 -5 14 -8
13 -23 -2 -9 -10 -13 -13 -9 -7 4 6 4 15 0 20 -10 14 -46 15 -54 2 -6 -9 -8
-8 -8 2 0 11 -4 9 -15 -5 -14 -19 -14 -19 -10 2 2 15 -2 21 -13 19 -30 -3 -52
-17 -45 -29 4 -6 0 -6 -9 2 -11 9 -18 10 -23 2 -3 -6 -11 -8 -16 -4 -15 9 0
23 21 19 12 -2 18 0 15 5 -6 9 -24 8 -40 -2 -6 -3 -25 -5 -42 -4 -32 2 -32 2
-15 -18 14 -17 14 -18 1 -8 -9 7 -25 10 -35 6 -16 -5 -16 -4 -4 5 13 9 11 11
-7 11 -12 0 -24 6 -26 13 -4 9 -6 8 -6 -2 -1 -11 -4 -11 -18 0 -14 12 -16 12
-8 0 6 -11 3 -13 -14 -8 -19 5 -20 3 -10 -9 10 -12 10 -15 -2 -12 -8 2 -20 10
-26 18 -12 13 -12 13 -8 -1 3 -9 -2 -22 -12 -30 -16 -13 -17 -12 -5 2 10 14
10 18 -3 23 -9 3 -14 2 -11 -2 3 -4 -3 -13 -13 -19 -14 -9 -18 -8 -18 3 0 7 5
10 11 7 6 -3 8 -2 3 2 -4 5 -16 9 -27 10 -15 1 -17 -1 -9 -11 8 -10 5 -12 -16
-8 -15 3 -24 1 -21 -5 6 -9 -25 -10 -34 -1 -14 14 -50 29 -50 21 0 -5 5 -11
12 -13 7 -3 5 -7 -6 -11 -10 -4 -15 -3 -11 3 4 6 -5 10 -20 10 -14 0 -24 -3
-21 -8 2 -4 -12 -7 -32 -6 -25 1 -36 5 -34 14 2 10 -1 10 -10 4 -7 -6 -23 -9
-35 -8 -12 0 -24 -5 -27 -13 -4 -9 -1 -11 6 -7 17 11 59 13 53 4 -3 -5 -12 -7
-20 -3 -8 3 -15 0 -15 -6 0 -6 -3 -10 -7 -10 -26 4 -43 -2 -37 -13 5 -8 0 -7
-11 2 -10 8 -16 10 -12 4 4 -7 0 -14 -8 -18 -8 -3 -19 2 -24 12 -5 9 -13 17
-18 17 -4 0 -7 3 -6 7 2 4 -6 5 -17 3 -11 -2 -22 0 -25 5 -3 5 -13 6 -22 3
-12 -5 -14 -3 -8 8 8 12 6 12 -8 0 -13 -11 -17 -11 -17 -1 0 8 -3 11 -6 7 -4
-3 -14 2 -23 11 -9 10 -13 13 -9 7 11 -17 -28 -12 -49 7 -10 8 -25 18 -33 22
-8 4 -7 1 3 -7 17 -14 17 -15 -7 -13 -13 0 -24 3 -24 6 2 28 -3 32 -17 14 -13
-18 -14 -18 -9 6 2 14 2 19 -2 13 -3 -7 -10 -13 -15 -13 -6 0 -8 4 -5 8 9 15
-39 7 -52 -8 -7 -8 -12 -10 -11 -5 1 6 1 17 0 25 -1 13 -2 13 -11 0 -9 -13
-10 -13 -11 0 -1 8 -1 19 0 23 1 5 -3 6 -9 2 -6 -3 -8 -10 -5 -14 2 -5 -10 -7
-27 -6 -18 2 -34 8 -36 14 -3 9 -8 9 -18 0 -12 -10 -19 -7 -38 10 -16 15 -26
19 -31 12 -3 -6 -10 -9 -15 -6 -4 2 -21 -5 -36 -17 l-29 -22 24 27 c28 31 26
32 -9 12z m89 -18 c0 -8 -2 -8 -6 1 -4 9 -8 10 -18 2 -10 -8 -15 -8 -21 1 -4
7 -3 9 4 5 6 -3 13 -2 17 4 8 13 25 3 24 -13z m-254 -37 c-3 -5 -12 -10 -18
-10 -7 0 -6 4 3 10 19 12 23 12 15 0z m1575 -29 c0 -6 -4 -12 -8 -15 -5 -3 -9
1 -9 9 0 8 4 15 9 15 4 0 8 -4 8 -9z m194 -126 c3 -8 1 -15 -4 -15 -6 0 -10 7
-10 15 0 8 2 15 4 15 2 0 6 -7 10 -15z m-2089 -35 c-3 -5 -12 -10 -18 -10 -7
0 -6 4 3 10 19 12 23 12 15 0z m-353 -152 c-7 -7 -12 -8 -12 -2 0 14 12 26 19
19 2 -3 -1 -11 -7 -17z m2823 -117 c3 -5 2 -12 -3 -15 -5 -3 -9 1 -9 9 0 17 3
19 12 6z m-3010 -121 c-3 -5 -12 -10 -18 -10 -7 0 -6 4 3 10 19 12 23 12 15 0z
m3159 -55 c-4 -8 -11 -12 -16 -9 -6 4 -5 10 3 15 19 12 19 11 13 -6z m-3334
-55 c0 -5 -5 -10 -11 -10 -5 0 -7 5 -4 10 3 6 8 10 11 10 2 0 4 -4 4 -10z
m-10 -30 c0 -5 -4 -10 -10 -10 -5 0 -10 5 -10 10 0 6 5 10 10 10 6 0 10 -4 10
-10z m-57 -55 c-3 -9 -8 -14 -10 -11 -3 3 -2 9 2 15 9 16 15 13 8 -4z m-152
-238 c-6 -8 -7 -18 -3 -22 4 -5 1 -5 -6 -1 -10 6 -10 11 -1 22 6 8 14 14 16
14 3 0 0 -6 -6 -13z m-65 -167 c0 -12 -4 -16 -9 -11 -5 5 -6 14 -3 20 10 15
12 14 12 -9z m5 -853 c-8 -8 -14 -7 -23 2 -11 10 -9 11 6 5 15 -6 17 -4 11 6
-6 9 -4 11 4 5 9 -5 10 -10 2 -18z m31 -144 c-6 -2 -9 -10 -6 -15 4 -7 2 -8
-5 -4 -13 9 -5 26 12 25 9 0 8 -2 -1 -6z m113 -273 c3 -6 -1 -7 -9 -4 -18 7
-21 14 -7 14 6 0 13 -4 16 -10z m3432 -36 c-14 -12 -24 -24 -21 -27 2 -2 -2
-9 -10 -16 -11 -9 -15 -8 -19 3 -4 11 -1 13 10 9 11 -4 14 -2 9 5 -4 6 2 17
13 24 14 9 17 16 10 24 -8 9 -5 11 12 7 l22 -6 -26 -23z m-3412 6 c3 -5 1 -10
-4 -10 -6 0 -11 5 -11 10 0 6 2 10 4 10 3 0 8 -4 11 -10z m80 -138 c-3 -3 -11
0 -18 7 -9 10 -8 11 6 5 10 -3 15 -9 12 -12z m129 -168 c3 -8 2 -12 -4 -9 -6
3 -10 10 -10 16 0 14 7 11 14 -7z m2909 -249 c-3 -8 -10 -15 -15 -15 -6 0 -5
-6 2 -15 20 -24 5 -18 -16 7 -10 12 -13 18 -6 14 6 -4 12 -3 12 3 0 5 -8 12
-17 15 -10 3 -5 4 12 2 27 -4 28 -3 11 10 -10 7 -23 11 -27 8 -5 -3 -9 -1 -9
5 0 5 6 12 13 14 16 7 47 -30 40 -48z m-2593 -26 c0 7 5 9 12 5 9 -6 9 -9 1
-11 -7 -3 -9 -12 -6 -21 3 -11 2 -13 -4 -6 -4 6 -16 10 -25 8 -10 -1 -18 3
-18 9 0 16 -14 -1 -16 -20 -2 -10 2 -23 7 -29 7 -8 6 -15 -2 -20 -7 -4 -9 -3
-5 4 3 6 1 14 -5 17 -5 4 -8 13 -5 21 3 9 -1 14 -12 15 -12 0 -11 3 6 10 13 5
20 13 17 19 -9 14 8 13 23 -2 13 -13 17 2 5 18 -5 5 0 1 10 -9 9 -11 17 -14
17 -8z m2537 8 c-1 -5 -11 -11 -20 -13 -9 -1 -15 2 -11 7 3 5 10 6 16 3 8 -5
9 -1 5 10 -4 11 -3 15 4 11 5 -4 8 -12 6 -18z m23 -25 c0 -5 -7 -9 -15 -9 -8
0 -12 4 -9 9 3 4 9 8 15 8 5 0 9 -4 9 -8z m-2578 -29 c-6 -2 -9 -10 -6 -15 4
-7 2 -8 -4 -4 -18 11 -14 26 6 25 10 0 12 -3 4 -6z m-141 -30 c-12 -20 -14
-14 -5 12 4 9 9 14 11 11 3 -2 0 -13 -6 -23z m193 18 c-8 -8 -43 -8 -38 0 2 4
13 7 24 6 10 -1 17 -3 14 -6z m-388 -53 c4 -7 3 -8 -4 -4 -7 4 -12 2 -12 -5 0
-7 -3 -10 -6 -6 -6 5 3 27 11 27 2 0 7 -5 11 -12z m-1131 -608 c-3 -5 -16 -15
-28 -21 -19 -9 -19 -8 3 10 28 23 34 26 25 11z m5495 -260 c0 -5 -2 -10 -4
-10 -3 0 -8 5 -11 10 -3 6 -1 10 4 10 6 0 11 -4 11 -10z m-6188 -483 c-12 -13
-19 -27 -15 -32 5 -4 2 -5 -5 -1 -11 6 -8 13 9 32 12 13 25 24 27 24 3 0 -4
-10 -16 -23z m-217 -317 c-3 -5 -12 -10 -18 -10 -7 0 -6 4 3 10 19 12 23 12
15 0z m-74 -117 c13 -16 12 -17 -3 -4 -10 7 -18 15 -18 17 0 8 8 3 21 -13z
m-101 -163 c0 -5 -5 -10 -11 -10 -5 0 -7 5 -4 10 3 6 8 10 11 10 2 0 4 -4 4
-10z m-110 -260 c0 -5 -5 -10 -11 -10 -5 0 -7 5 -4 10 3 6 8 10 11 10 2 0 4
-4 4 -10z m-60 -174 c0 -2 -6 -9 -13 -15 -10 -8 -14 -7 -14 4 0 8 6 15 14 15
7 0 13 -2 13 -4z m-80 -250 c0 -2 -7 -7 -16 -10 -8 -3 -12 -2 -9 4 6 10 25 14
25 6z m-83 -241 c0 -8 -4 -12 -9 -9 -5 3 -6 10 -3 15 9 13 12 11 12 -6z m7844
-162 c13 -16 12 -17 -3 -4 -17 13 -22 21 -14 21 2 0 10 -8 17 -17z m-7944
-478 c0 -8 -4 -12 -9 -9 -5 3 -6 10 -3 15 9 13 12 11 12 -6z m3 -155 c0 -5 -5
-10 -11 -10 -5 0 -7 5 -4 10 3 6 8 10 11 10 2 0 4 -4 4 -10z m15 -749 c3 -5 2
-12 -3 -15 -5 -3 -9 1 -9 9 0 17 3 19 12 6z m22 -216 c0 -8 -4 -12 -9 -9 -5 3
-6 10 -3 15 9 13 12 11 12 -6z m8063 -89 c0 -2 -7 -7 -16 -10 -8 -3 -12 -2 -9
4 6 10 25 14 25 6z m-8003 -312 c-3 -3 -12 -4 -19 -1 -8 3 -5 6 6 6 11 1 17
-2 13 -5z m7988 -134 c-3 -5 -12 -10 -18 -10 -7 0 -6 4 3 10 19 12 23 12 15 0z
m-7865 -394 c0 -3 -4 -8 -10 -11 -5 -3 -10 -1 -10 4 0 6 5 11 10 11 6 0 10 -2
10 -4z m15 -126 c-3 -5 -1 -10 6 -10 7 0 10 -3 6 -6 -9 -9 -28 6 -22 17 4 5 8
9 11 9 3 0 2 -4 -1 -10z m75 -116 c0 -8 -19 -13 -24 -6 -3 5 1 9 9 9 8 0 15
-2 15 -3z m69 -277 c-2 -1 -13 -9 -24 -17 -19 -14 -19 -14 -6 3 7 9 18 17 24
17 6 0 8 -1 6 -3z m11 -81 c14 -18 14 -18 -7 -6 -12 8 -19 18 -16 23 3 4 6 7
7 5 1 -2 8 -12 16 -22z m67 -211 c0 -8 -4 -12 -9 -9 -5 3 -6 10 -3 15 9 13 12
11 12 -6z m7273 -335 c0 -5 -5 -10 -11 -10 -5 0 -7 5 -4 10 3 6 8 10 11 10 2
0 4 -4 4 -10z m-305 -479 c3 -5 2 -12 -3 -15 -5 -3 -9 1 -9 9 0 17 3 19 12 6z
m-6645 -41 c0 -5 -5 -10 -11 -10 -5 0 -7 5 -4 10 3 6 8 10 11 10 2 0 4 -4 4
-10z m154 -422 c-5 -8 -1 -9 12 -4 14 5 16 4 7 -5 -13 -13 -37 -3 -28 12 4 5
8 9 11 9 3 0 2 -5 -2 -12z m46 -58 c0 -5 -5 -10 -11 -10 -5 0 -7 5 -4 10 3 6
8 10 11 10 2 0 4 -4 4 -10z m32 -102 c-6 -6 -12 -6 -17 3 -5 8 -4 10 3 5 7 -4
12 0 13 11 0 12 2 13 6 5 3 -8 1 -18 -5 -24z m83 -118 c3 -5 1 -10 -4 -10 -6
0 -11 5 -11 10 0 6 2 10 4 10 3 0 8 -4 11 -10z m130 -240 c3 -6 -1 -7 -9 -4
-18 7 -21 14 -7 14 6 0 13 -4 16 -10z m-10 -30 c-3 -5 -12 -10 -18 -10 -7 0
-6 4 3 10 19 12 23 12 15 0z m5510 -79 c-3 -6 -11 -11 -16 -11 -5 0 -4 6 3 14
14 16 24 13 13 -3z m-5261 -997 c5 -14 4 -15 -9 -4 -17 14 -19 20 -6 20 5 0
12 -7 15 -16z m10 -566 c-3 -4 -12 -8 -20 -8 -8 0 -14 4 -14 8 0 4 9 8 19 8
11 0 17 -4 15 -8z m836 -38 c-8 -5 -11 -10 -7 -10 5 0 5 -5 1 -11 -4 -8 -9 -8
-18 1 -8 8 -7 13 4 20 8 5 20 10 25 10 6 0 3 -5 -5 -10z m-1 -46 c-6 -8 -7
-14 -2 -14 10 0 10 -60 -1 -78 -4 -7 -2 -12 5 -12 8 0 8 -4 -1 -15 -9 -10 -9
-15 -1 -15 6 0 11 -5 11 -11 0 -5 -3 -8 -7 -6 -5 3 -8 -15 -8 -39 0 -24 4 -44
8 -44 5 0 5 -6 1 -12 -12 -19 -12 -48 -1 -48 5 0 4 -6 -2 -13 -6 -8 -9 -16 -6
-18 8 -9 12 -78 4 -73 -5 3 -9 1 -9 -5 0 -5 6 -11 13 -14 9 -3 9 -7 1 -18 -13
-16 6 -75 21 -62 4 5 5 2 1 -5 -4 -7 -12 -10 -17 -6 -6 3 -8 -5 -5 -20 2 -14
-1 -27 -7 -30 -9 -3 -8 -7 2 -14 12 -9 12 -13 2 -26 -11 -13 -11 -16 0 -16 12
0 12 -2 0 -9 -9 -6 -10 -10 -2 -16 9 -5 9 -10 0 -21 -6 -8 -7 -14 -2 -14 11 0
11 -29 -1 -48 -4 -7 -2 -12 6 -13 10 0 10 -2 -1 -6 -11 -5 -11 -7 0 -14 12 -7
11 -9 -1 -9 -13 0 -13 -2 -1 -9 12 -8 12 -12 2 -25 -11 -12 -11 -16 -1 -16 9
0 9 -4 -1 -17 -12 -15 -12 -16 1 -8 12 7 11 4 -2 -17 -17 -25 -16 -27 5 -42
20 -14 20 -15 2 -9 -17 6 -18 5 -7 -9 10 -12 10 -18 1 -23 -8 -6 -7 -10 2 -16
12 -7 11 -9 0 -9 -11 0 -10 -4 5 -16 10 -8 13 -13 7 -9 -7 3 -13 0 -14 -7 0
-7 -2 -21 -4 -30 -2 -10 0 -18 4 -18 4 0 7 -9 7 -19 0 -11 -4 -17 -8 -15 -4 3
-8 0 -8 -5 0 -6 5 -11 11 -11 6 0 7 -5 2 -12 -4 -7 -9 -22 -10 -33 -3 -16 -1
-17 7 -5 13 20 13 4 0 -20 -8 -15 -6 -21 7 -29 11 -6 13 -11 5 -11 -7 0 -10
-5 -7 -10 3 -5 0 -10 -7 -11 -10 0 -11 -2 0 -6 10 -4 10 -8 0 -21 -11 -12 -11
-16 1 -20 11 -4 11 -6 0 -13 -12 -7 -12 -9 0 -9 11 0 11 -3 1 -15 -7 -8 -8
-15 -3 -15 5 0 10 -7 10 -16 0 -10 -7 -14 -18 -11 -11 3 -17 0 -16 -7 1 -6 -7
-11 -17 -11 -11 0 -21 -6 -24 -14 -4 -11 -6 -11 -13 0 -7 12 -9 12 -9 0 0 -11
-3 -11 -17 0 -14 12 -16 12 -8 0 6 -11 2 -13 -19 -9 -19 4 -24 2 -16 -7 11
-14 -17 -14 -39 0 -9 5 -12 4 -8 -2 4 -6 -2 -13 -13 -16 -11 -3 -18 -1 -15 3
3 5 -3 8 -14 7 -15 -1 -17 -4 -9 -14 8 -9 1 -9 -26 2 -30 13 -36 13 -36 1 0
-16 -31 -16 -42 -1 -5 6 -8 4 -8 -5 0 -13 -1 -13 -10 0 -9 13 -10 13 -10 0 0
-13 -1 -13 -10 0 -9 13 -10 13 -10 0 0 -13 -1 -13 -10 0 -7 12 -10 12 -10 1 0
-7 -6 -11 -15 -7 -10 3 -15 -1 -16 -12 -1 -15 -2 -15 -6 1 -5 18 -5 18 -19 0
-12 -17 -13 -17 -14 0 0 9 -4 17 -10 17 -5 0 -7 -6 -4 -13 3 -8 -2 -14 -11
-14 -8 0 -15 5 -15 11 0 6 -5 4 -10 -4 -5 -8 -10 -11 -10 -6 0 5 -7 3 -16 -4
-19 -16 -64 -22 -64 -9 0 6 -5 7 -10 4 -6 -4 -7 -11 -4 -17 4 -6 2 -8 -4 -4
-6 3 -14 2 -17 -4 -4 -7 -12 -7 -18 -2 -18 12 -42 8 -39 -7 2 -11 -3 -10 -22
3 -24 15 -25 15 -19 -1 4 -11 3 -14 -5 -9 -7 4 -12 2 -12 -6 0 -10 -2 -10 -9
1 -6 9 -11 10 -15 2 -4 -7 -14 -8 -24 -3 -24 12 -41 9 -52 -8 -5 -8 -10 -11
-10 -6 0 5 -6 3 -14 -3 -10 -8 -16 -9 -21 -1 -3 6 -11 8 -16 4 -12 -7 -65 -17
-95 -18 -15 -1 -20 -6 -16 -16 5 -13 3 -13 -11 -1 -14 11 -18 11 -23 -3 -3 -9
-10 -13 -15 -10 -5 3 -6 11 -2 17 5 8 2 8 -9 0 -8 -7 -19 -9 -24 -5 -4 4 -2
-2 6 -12 14 -18 14 -19 -9 -7 -13 7 -21 8 -17 3 3 -6 2 -13 -4 -17 -5 -3 -11
2 -11 12 -1 17 -2 17 -6 0 -5 -18 -5 -18 -19 0 -12 17 -13 17 -14 1 0 -21 -11
-23 -29 -5 -11 10 -13 10 -7 0 5 -9 0 -13 -14 -13 -12 0 -18 -4 -15 -10 3 -5
1 -10 -4 -10 -6 0 -11 5 -11 11 0 8 -6 7 -17 -2 -15 -12 -16 -12 -8 1 8 13 7
13 -8 1 -12 -9 -17 -10 -17 -2 0 7 -4 9 -10 6 -5 -3 -10 -1 -10 4 0 6 7 11 16
11 14 0 14 1 0 16 -20 19 -20 19 1 35 11 10 14 10 9 1 -4 -7 -2 -12 4 -12 7 0
9 7 6 16 -4 9 -1 23 5 30 6 7 8 18 4 24 -3 5 0 10 7 11 10 0 10 2 1 6 -7 2
-13 9 -13 14 0 6 4 8 9 4 5 -3 13 0 17 6 4 7 3 9 -2 6 -6 -3 -16 -2 -24 4 -13
7 -13 9 0 9 11 0 16 9 15 29 0 26 -2 28 -20 19 -16 -9 -18 -8 -8 3 10 10 10
16 0 28 -10 12 -9 13 2 7 10 -7 12 -3 6 15 -4 13 -14 29 -21 37 -8 7 -12 17
-9 22 3 5 -4 12 -15 15 -16 5 -19 10 -10 20 9 11 7 12 -9 8 -12 -3 -21 -7 -21
-9 0 -9 26 -50 40 -62 13 -11 12 -11 -7 -2 -19 9 -23 8 -23 -5 0 -9 4 -14 9
-10 5 3 12 1 15 -4 4 -5 2 -12 -3 -15 -5 -4 -12 -2 -16 4 -4 6 -10 8 -15 5 -5
-3 -12 0 -16 6 -4 8 -3 9 4 5 7 -4 12 -1 12 9 0 12 -6 15 -22 11 -13 -3 -18
-3 -12 0 9 4 8 13 -2 33 -18 35 -40 55 -53 47 -5 -4 -14 1 -19 10 -5 9 -23 17
-40 17 -17 1 -29 3 -27 6 2 2 -3 10 -11 18 -20 20 -31 8 -13 -13 13 -16 12
-16 -8 -4 -12 8 -20 17 -17 21 2 4 -1 9 -6 11 -6 2 -12 12 -14 23 -1 10 -9 21
-17 23 -11 3 -11 2 -1 -6 14 -10 3 -23 -28 -35 -13 -5 -13 -6 1 -6 9 -1 21
-11 27 -23 10 -20 10 -19 6 12 l-4 35 10 -33 c7 -21 15 -30 23 -26 7 4 4 -1
-5 -11 -15 -16 -19 -16 -35 -5 -14 11 -15 11 -6 1 6 -7 9 -21 6 -30 -5 -11 1
-10 19 7 25 22 48 29 48 13 0 -5 -8 -15 -17 -22 -11 -10 -14 -10 -9 -1 4 6 3
12 -2 12 -12 0 -33 -25 -36 -42 -1 -7 -5 -19 -10 -27 -6 -10 -4 -12 11 -7 13
4 20 2 20 -8 0 -9 -5 -13 -11 -10 -6 3 -3 -1 8 -10 10 -8 15 -19 12 -24 -3 -6
-1 -12 4 -14 6 -2 12 -13 13 -26 0 -12 4 -22 7 -22 3 0 11 -9 18 -21 8 -12 9
-18 4 -15 -6 4 -9 -13 -8 -43 1 -42 -1 -48 -13 -38 -12 10 -13 9 -3 -9 13 -24
-1 -44 -31 -44 -10 0 -16 -4 -12 -10 3 -5 12 -7 19 -4 8 3 17 1 21 -5 3 -6 0
-9 -7 -6 -7 3 -25 -6 -40 -20 -16 -14 -28 -22 -28 -17 0 5 10 16 22 24 19 13
20 15 4 21 -9 4 -15 3 -12 -2 3 -5 -1 -14 -9 -21 -8 -7 -15 -9 -15 -5 0 5 -8
1 -18 -8 -10 -10 -22 -15 -25 -12 -4 3 -5 2 -2 -2 9 -12 36 -12 29 -1 -4 7 -2
8 4 4 9 -5 9 -13 2 -27 -13 -24 -22 -25 -13 -1 3 9 3 14 -2 10 -4 -4 -16 -3
-26 2 -12 7 -20 6 -25 -2 -4 -6 -3 -8 4 -4 6 3 13 2 16 -3 4 -5 -1 -8 -10 -7
-8 1 -20 9 -25 17 -5 8 -9 9 -9 3 0 -19 -39 -24 -49 -7 -7 13 -9 13 -14 -1 -4
-10 -3 -14 2 -11 15 9 25 -15 12 -28 -9 -9 -11 -8 -6 3 4 11 -1 16 -15 17 -13
1 -18 -2 -13 -10 5 -9 3 -9 -8 -1 -8 6 -24 10 -37 9 -13 -1 -25 2 -28 7 -3 4
-10 5 -16 2 -6 -4 -8 -2 -4 4 3 6 15 9 26 6 11 -2 29 -6 40 -8 11 -3 22 -1 24
3 3 4 -5 7 -17 8 -12 1 -33 4 -46 7 -13 3 -32 1 -42 -4 -14 -8 -20 -6 -27 7
-5 10 -7 25 -4 33 5 13 3 13 -13 0 -11 -9 -16 -10 -11 -2 4 6 3 12 -2 12 -6 0
-13 7 -16 16 -3 8 -2 13 3 9 11 -6 8 22 -4 32 -4 4 -5 2 -1 -4 4 -8 1 -13 -8
-13 -10 0 -13 6 -9 16 3 9 0 20 -7 24 -7 4 -12 19 -12 34 0 14 -4 26 -9 26 -5
0 -9 5 -9 11 0 5 4 7 10 4 5 -3 7 0 4 8 -3 8 2 20 11 27 8 7 15 17 15 23 0 6
-7 2 -15 -9 -8 -10 -15 -15 -15 -10 0 6 -7 1 -16 -10 -15 -18 -15 -18 -5 3 14
28 14 36 -1 27 -7 -4 -8 -3 -4 4 4 6 14 8 24 5 14 -5 15 -4 6 8 -17 23 -26 51
-12 43 7 -5 8 -3 4 5 -5 7 -15 10 -23 7 -8 -4 -11 -1 -7 5 3 6 15 8 26 6 19
-5 19 -5 1 15 -10 12 -13 18 -7 15 15 -9 28 23 15 36 -12 12 -2 39 12 30 6 -3
7 -1 3 5 -4 7 -9 21 -11 33 -4 18 -2 19 12 7 15 -12 15 -11 5 8 -9 17 -9 24 3
34 8 7 13 16 10 20 -3 5 -2 10 2 13 5 2 3 3 -3 1 -6 -1 -11 4 -11 11 0 8 3 14
6 13 25 -2 34 3 24 13 -6 6 -9 18 -6 27 5 11 3 13 -7 7 -8 -5 -11 -4 -7 3 4 5
17 8 30 4 21 -5 21 -4 4 15 -14 16 -14 20 -2 20 8 0 11 -5 8 -11 -3 -6 8 3 24
19 31 32 35 49 5 22 -10 -10 -23 -17 -28 -17 -5 0 -1 5 9 11 9 6 15 15 11 20
-3 5 -2 9 3 8 14 -3 43 13 38 21 -3 4 5 10 16 13 15 4 20 11 15 22 -3 9 -2 13
4 10 6 -3 10 0 10 7 0 9 3 9 10 -2 9 -14 15 -7 11 14 -1 5 5 6 13 3 8 -3 20 2
28 11 9 11 10 14 1 8 -17 -10 -16 4 2 28 8 10 12 22 10 27 -3 4 0 11 6 15 8 4
9 3 5 -4 -4 -7 -2 -12 5 -12 8 0 6 -7 -5 -19 -15 -16 -15 -19 -2 -24 11 -4 13
-1 9 11 -6 15 -5 16 13 2 18 -14 18 -14 4 4 -13 18 -13 19 1 14 9 -4 16 -1 16
7 0 7 -6 11 -12 9 -6 -3 -12 1 -12 9 0 9 7 12 18 10 9 -3 20 1 25 8 5 9 2 10
-12 5 -15 -6 -16 -5 -7 5 10 10 16 9 29 -2 16 -13 16 -12 4 11 -13 24 -12 24
5 10 17 -14 18 -13 12 3 -4 11 -1 17 9 17 8 0 13 -4 10 -8 -3 -5 1 -9 8 -9 7
0 13 7 12 16 -1 11 8 16 29 17 36 0 55 10 55 27 0 7 -4 6 -11 -3 -9 -13 -10
-13 -6 0 2 8 8 15 13 15 5 0 15 4 23 9 10 6 12 5 7 -2 -4 -7 -3 -12 3 -12 5 0
13 5 16 10 7 12 25 4 25 -12 0 -5 -7 -8 -14 -5 -10 4 -13 1 -10 -8 3 -8 11
-13 17 -12 7 1 11 -3 10 -8 -1 -6 8 -11 19 -11 l20 0 -20 14 c-19 12 -20 48
-2 37 5 -3 12 0 16 6 4 7 3 9 -2 6 -6 -3 -16 -1 -24 5 -12 8 -11 9 4 4 14 -5
17 -2 12 11 -3 11 2 8 12 -6 20 -29 53 -66 37 -42 -8 12 -6 13 7 8 10 -3 20
-1 24 5 4 7 3 8 -4 4 -8 -5 -10 -1 -5 10 6 16 8 15 16 -4 l10 -22 18 22 19 21
0 -24 1 -24 12 23 c7 12 16 20 20 16 4 -4 1 -14 -6 -23 -9 -12 -7 -11 13 2 13
9 29 17 35 17 5 0 3 -5 -5 -11 -12 -8 -10 -9 8 -4 17 5 22 2 22 -12 0 -15 2
-15 9 -4 7 10 5 19 -6 26 -9 7 -13 18 -10 26 4 10 6 9 6 -3 1 -10 8 -18 17
-18 9 0 12 5 8 13 -6 9 -4 9 8 -1 13 -10 19 -10 31 3 17 17 32 20 22 6 -3 -5
-1 -13 5 -16 6 -4 9 -1 8 6 -2 6 3 14 11 17 9 3 11 0 6 -8 -5 -9 -4 -11 4 -6
6 4 9 11 6 16 -3 5 -1 11 5 15 6 3 10 -4 10 -17 0 -18 2 -20 9 -8 6 8 8 17 5
21 -2 4 0 10 5 13 5 4 13 1 17 -5 5 -8 3 -9 -7 -4 -8 5 -10 4 -6 0 12 -13 36
-15 44 -3 4 7 1 8 -8 3 -12 -8 -12 -6 0 8 13 17 36 14 26 -4 -4 -5 -1 -9 4 -9
6 0 11 8 11 18 1 16 1 16 11 -1 10 -17 12 -17 36 -2 14 10 22 12 19 6 -8 -12
4 -15 44 -11 36 3 82 29 74 42 -5 7 -2 8 7 2 8 -4 26 -9 41 -10 21 -2 25 1 20
14 -5 15 -4 15 12 0 21 -22 30 -23 22 -3 -3 8 -2 14 2 14 4 -1 9 -1 12 1 17 6
81 7 71 0 -8 -5 -9 -10 -3 -14 5 -3 13 1 16 9 4 10 -2 19 -17 26 -20 8 -19 9
6 4 26 -5 27 -4 17 17 -10 21 -10 22 4 5 8 -11 12 -26 10 -35 -5 -14 -4 -14 6
1 6 9 8 22 4 29 -4 7 -3 8 5 4 6 -4 9 -17 6 -29 -2 -12 -2 -17 1 -10 3 7 13 9
22 6 15 -4 15 -3 2 6 -8 6 -11 11 -6 11 5 0 2 8 -5 17 -8 10 -9 14 -2 10 7 -4
16 0 22 10 6 10 11 13 11 8 0 -6 -5 -16 -11 -22 -7 -7 -6 -12 6 -17 9 -3 13
-2 10 3 -9 16 15 24 31 10 12 -10 15 -10 12 2 -2 8 3 13 10 11 8 -1 11 2 7 8
-6 10 9 15 30 10 6 -1 6 2 2 7 -5 4 -13 9 -18 9 -5 1 -13 2 -19 3 -5 0 -10 6
-10 12 0 8 5 8 15 -1 12 -10 15 -9 16 6 0 18 1 18 8 1 4 -10 11 -19 16 -20 6
-1 9 -6 7 -10 -1 -5 2 -6 7 -2 6 3 8 12 5 19 -3 8 0 17 7 22 8 5 10 3 4 -6 -6
-10 -4 -11 6 -4 8 5 19 9 24 9 6 0 9 10 7 22 -2 12 2 24 8 28 7 4 10 1 8 -8
-2 -9 2 -16 7 -16 6 -1 10 8 10 18 0 26 12 36 28 23 9 -8 17 -8 27 0 13 8 12
9 -2 4 -12 -3 -15 -1 -11 9 3 8 9 12 14 9 5 -3 9 2 9 10 0 9 5 16 11 16 5 0 7
-6 4 -12 -4 -7 -1 -6 7 3 7 9 20 15 29 14 12 -2 15 3 11 18 -4 16 -2 19 11 14
9 -3 19 -2 22 3 3 4 -1 11 -7 13 -12 5 26 11 45 8 4 -1 3 8 -4 20 -8 15 -8 19
0 15 10 -7 16 6 12 27 -1 5 3 6 9 2 6 -3 8 -10 6 -14 -3 -4 1 -8 9 -8 8 0 13
5 12 11 -1 6 3 10 9 9 8 -2 10 6 6 20 -5 20 -4 21 12 8 15 -12 17 -12 14 0 -2
8 3 13 10 11 8 -1 11 2 7 8 -3 6 -11 7 -17 4 -7 -5 -8 -2 -4 5 5 7 14 10 20 8
7 -3 13 1 13 9 0 7 -5 10 -11 7 -7 -4 -7 -1 0 6 9 10 17 10 35 1 20 -9 21 -9
8 2 -9 7 -16 21 -16 30 0 14 4 15 21 6 18 -10 19 -9 9 3 -9 12 -6 14 18 15 24
1 27 -1 18 -12z m-1069 -228 c0 -8 -4 -18 -10 -21 -5 -3 -10 -1 -10 5 0 6 -5
8 -10 5 -8 -5 -8 -11 0 -20 9 -10 7 -13 -7 -10 -10 2 -20 4 -22 4 -8 2 42 51
51 51 4 0 8 -6 8 -14z m-76 -47 c-3 -5 -10 -7 -15 -3 -5 3 -7 10 -3 15 3 5 10
7 15 3 5 -3 7 -10 3 -15z m-330 -24 c-4 -8 -11 -15 -16 -15 -6 0 -5 6 2 15 7
8 14 15 16 15 2 0 1 -7 -2 -15z m303 0 c0 -8 -4 -12 -9 -9 -4 3 -8 9 -8 15 0
5 4 9 8 9 5 0 9 -7 9 -15z m-552 -37 c3 -3 1 -9 -6 -14 -8 -5 -10 -3 -4 6 5 8
3 11 -6 8 -8 -3 -14 -10 -14 -15 0 -6 -4 -15 -8 -20 -5 -4 -8 -3 -7 2 5 21 0
33 -12 31 -23 -3 -38 -17 -32 -28 5 -7 2 -8 -5 -4 -22 14 15 42 53 41 19 0 37
-3 41 -7z m248 -3 c-3 -9 -8 -14 -10 -11 -3 3 -2 9 2 15 9 16 15 13 8 -4z
m-39 -11 c3 -8 2 -12 -4 -9 -6 3 -10 10 -10 16 0 14 7 11 14 -7z m1079 2 c4
-11 0 -13 -15 -11 -11 3 -23 7 -27 11 -3 4 2 4 12 1 9 -4 17 -2 17 3 0 15 7
12 13 -4z m-1515 -41 c-3 -3 -9 2 -12 12 -6 14 -5 15 5 6 7 -7 10 -15 7 -18z
m1395 -30 c-3 -9 -8 -14 -10 -11 -3 3 -2 9 2 15 9 16 15 13 8 -4z m-353 -83
c0 -18 -28 -44 -41 -39 -10 4 -9 6 4 6 15 1 22 12 18 34 0 4 4 7 9 7 6 0 10
-4 10 -8z m-124 -27 c-1 -8 -5 -17 -8 -21 -5 -4 -4 16 1 34 3 9 9 -1 7 -13z
m-454 -69 c7 4 8 2 4 -5 -9 -13 -26 -5 -25 12 0 9 2 8 6 -1 2 -6 10 -9 15 -6z
m-887 -15 c3 -5 2 -12 -3 -15 -5 -3 -9 1 -9 9 0 17 3 19 12 6z m710 -31 c3 -6
-1 -7 -9 -4 -18 7 -21 14 -7 14 6 0 13 -4 16 -10z m-229 -45 c-1 -8 -5 -17 -8
-21 -5 -4 -4 16 1 34 3 9 9 -1 7 -13z m-596 1 c0 -2 -8 -10 -17 -17 -16 -13
-17 -12 -4 4 13 16 21 21 21 13z m560 -52 c0 -8 -19 -13 -24 -6 -3 5 1 9 9 9
8 0 15 -2 15 -3z m-170 -364 c-18 -12 -30 -13 -30 -2 0 4 10 9 22 9 18 2 20 0
8 -7z m-33 -85 c0 -8 -4 -12 -9 -9 -4 3 -8 9 -8 15 0 5 4 9 8 9 5 0 9 -7 9
-15z m547 -21 c3 -8 2 -12 -4 -9 -6 3 -10 1 -10 -6 0 -7 -2 -10 -5 -7 -5 5 4
38 10 38 2 0 6 -7 9 -16z m116 -14 c6 -11 8 -20 6 -20 -3 0 -10 9 -16 20 -6
11 -8 20 -6 20 3 0 10 -9 16 -20z m-740 6 c0 -3 -4 -8 -10 -11 -5 -3 -10 -1
-10 4 0 6 5 11 10 11 6 0 10 -2 10 -4z m715 -14 c-3 -3 -11 0 -18 7 -9 10 -8
11 6 5 10 -3 15 -9 12 -12z m-655 -12 c0 -5 -2 -10 -4 -10 -3 0 -8 5 -11 10
-3 6 -1 10 4 10 6 0 11 -4 11 -10z m30 0 c0 -5 -2 -10 -4 -10 -3 0 -8 5 -11
10 -3 6 -1 10 4 10 6 0 11 -4 11 -10z m564 -6 c3 -8 2 -12 -4 -9 -6 3 -10 10
-10 16 0 14 7 11 14 -7z m83 -19 c0 -8 -4 -12 -9 -9 -5 3 -6 10 -3 15 9 13 12
11 12 -6z m-740 -70 c0 -8 -4 -12 -9 -9 -5 3 -6 10 -3 15 9 13 12 11 12 -6z
m638 -25 c3 -5 1 -10 -4 -10 -6 0 -11 5 -11 10 0 6 2 10 4 10 3 0 8 -4 11 -10z
m0 -48 c-3 -3 -11 0 -18 7 -9 10 -8 11 6 5 10 -3 15 -9 12 -12z m225 8 c0 -5
-2 -10 -4 -10 -3 0 -8 5 -11 10 -3 6 -1 10 4 10 6 0 11 -4 11 -10z m-1202 -45
c-3 -3 -9 2 -12 12 -6 14 -5 15 5 6 7 -7 10 -15 7 -18z m977 -4 c3 -5 2 -12
-3 -15 -5 -3 -9 1 -9 9 0 17 3 19 12 6z m-915 -5 c0 -3 -4 -8 -10 -11 -5 -3
-10 -1 -10 4 0 6 5 11 10 11 6 0 10 -2 10 -4z m934 -32 c3 -8 2 -12 -4 -9 -6
3 -10 10 -10 16 0 14 7 11 14 -7z m217 -11 c-12 -20 -14 -14 -5 12 4 9 9 14
11 11 3 -2 0 -13 -6 -23z m-1211 3 c0 -2 -7 -7 -16 -10 -8 -3 -12 -2 -9 4 6
10 25 14 25 6z m57 -11 c0 -8 -4 -12 -9 -9 -5 3 -6 10 -3 15 9 13 12 11 12 -6z
m1653 -1 c0 -8 -19 -13 -24 -6 -3 5 1 9 9 9 8 0 15 -2 15 -3z m-1753 -19 c0
-8 -4 -12 -9 -9 -5 3 -6 10 -3 15 9 13 12 11 12 -6z m57 -101 c3 -8 2 -12 -4
-9 -6 3 -10 10 -10 16 0 14 7 11 14 -7z m41 -14 c-3 -5 -12 -10 -18 -10 -7 0
-6 4 3 10 19 12 23 12 15 0z m7405 0 c0 -5 -5 -10 -11 -10 -5 0 -7 5 -4 10 3
6 8 10 11 10 2 0 4 -4 4 -10z m-6713 -23 c0 -7 -9 -13 -19 -13 -18 0 -18 1 -2
13 10 7 18 13 19 13 1 0 2 -6 2 -13z m-7 -33 c0 -8 -19 -13 -24 -6 -3 5 1 9 9
9 8 0 15 -2 15 -3z m7200 -64 c0 -5 -5 -10 -11 -10 -5 0 -7 5 -4 10 3 6 8 10
11 10 2 0 4 -4 4 -10z m-7825 -10 c-3 -6 0 -13 8 -16 7 -2 14 -12 14 -20 0
-12 -5 -10 -18 7 -15 21 -17 39 -3 39 3 0 2 -5 -1 -10z m60 -80 c-3 -5 -11
-10 -16 -10 -6 0 -7 5 -4 10 3 6 11 10 16 10 6 0 7 -4 4 -10z"/>
<path d="M5224 1502 c3 -5 0 -12 -6 -15 -10 -4 -10 -7 -1 -16 7 -6 11 -8 8 -5
-3 4 0 13 6 20 7 8 6 14 -2 20 -7 4 -9 3 -5 -4z"/>
<path d="M5250 1495 c0 -8 4 -15 10 -15 5 0 7 7 4 15 -4 8 -8 15 -10 15 -2 0
-4 -7 -4 -15z"/>
<path d="M5081 1459 c-17 -14 -18 -18 -5 -23 10 -4 13 -2 8 6 -5 7 -2 9 9 5
11 -4 14 -2 11 8 -6 16 11 14 43 -3 15 -8 24 -9 28 -2 5 8 12 7 23 -1 11 -9
11 -6 -2 7 -12 13 -20 15 -23 7 -2 -7 -11 -9 -19 -6 -7 3 -12 8 -10 12 9 15
-43 6 -63 -10z"/>
<path d="M4850 1399 c0 -5 5 -7 10 -4 6 3 10 8 10 11 0 2 -4 4 -10 4 -5 0 -10
-5 -10 -11z"/>
<path d="M4930 1399 c0 -5 5 -7 10 -4 6 3 10 8 10 11 0 2 -4 4 -10 4 -5 0 -10
-5 -10 -11z"/>
<path d="M4442 1374 c-7 -8 -8 -14 -3 -14 10 0 25 19 20 25 -2 1 -10 -3 -17
-11z"/>
<path d="M4756 1378 c3 -5 10 -6 15 -3 13 9 11 12 -6 12 -8 0 -12 -4 -9 -9z"/>
<path d="M4353 1374 c3 -4 2 -14 -3 -23 -6 -13 -3 -20 13 -30 18 -11 20 -11
10 0 -7 7 -13 19 -13 27 0 8 5 10 13 6 8 -5 8 -2 -2 9 -7 9 -16 17 -19 17 -3
0 -2 -3 1 -6z"/>
<path d="M4310 1320 c0 -5 5 -10 10 -10 6 0 10 5 10 10 0 6 -4 10 -10 10 -5 0
-10 -4 -10 -10z"/>
<path d="M4273 1305 c0 -7 6 -11 14 -8 7 3 13 6 13 8 0 2 -6 5 -13 8 -8 3 -14
-1 -14 -8z"/>
<path d="M4215 1272 c-3 -7 -9 -11 -14 -8 -5 3 -12 -1 -15 -10 -9 -25 -7 -27
10 -10 8 9 20 13 26 10 7 -4 8 -2 4 4 -7 12 5 16 33 13 7 -2 10 2 7 8 -9 14
-44 9 -51 -7z"/>
<path d="M4257 924 c-3 -3 -3 -12 0 -20 6 -16 33 -19 33 -4 0 6 -6 9 -12 8 -7
-2 -12 3 -10 10 2 13 -1 15 -11 6z"/>
<path d="M4337 919 c7 -7 15 -10 18 -7 3 3 -2 9 -12 12 -14 6 -15 5 -6 -5z"/>
<path d="M4230 900 c0 -5 5 -10 11 -10 5 0 7 5 4 10 -3 6 -8 10 -11 10 -2 0
-4 -4 -4 -10z"/>
<path d="M4365 896 c-30 -13 -30 -13 -4 -12 15 0 32 7 38 14 15 15 4 15 -34
-2z"/>
<path d="M4426 888 c5 -8 2 -9 -10 -5 -9 4 -15 3 -11 -2 3 -5 0 -11 -6 -13 -7
-2 -5 -9 5 -17 14 -12 16 -12 10 3 -4 12 0 16 15 16 20 0 29 -14 14 -23 -5 -2
-3 -2 4 -1 7 2 15 -1 18 -6 4 -6 15 -10 26 -10 10 0 19 -5 19 -11 0 -6 7 -9
14 -6 11 4 13 1 9 -10 -4 -11 -3 -14 6 -9 9 6 11 0 9 -21 -2 -18 1 -27 10 -26
6 2 12 -2 12 -9 0 -6 3 -9 6 -6 3 4 0 16 -6 28 -9 16 -9 25 1 36 10 13 6 18
-13 15 -5 0 -8 5 -8 13 0 9 -7 12 -20 9 -14 -4 -19 -1 -17 8 2 8 2 11 0 7 -5
-8 -47 16 -71 39 -17 16 -25 17 -16 1z m59 -46 c-3 -3 -11 0 -18 7 -9 10 -8
11 6 5 10 -3 15 -9 12 -12z"/>
<path d="M4260 826 c0 -2 8 -10 18 -17 15 -13 16 -12 3 4 -13 16 -21 21 -21
13z"/>
<path d="M4277 783 c-11 -11 -8 -31 6 -36 9 -3 13 2 12 14 -2 22 -9 32 -18 22z"/>
<path d="M4353 585 c0 -8 4 -12 9 -9 5 3 6 10 3 15 -9 13 -12 11 -12 -6z"/>
<path d="M4348 553 c7 -3 16 -2 19 1 4 3 -2 6 -13 5 -11 0 -14 -3 -6 -6z"/>
<path d="M5386 548 c3 -5 10 -6 15 -3 13 9 11 12 -6 12 -8 0 -12 -4 -9 -9z"/>
<path d="M4339 472 c9 -7 10 -11 2 -15 -7 -4 -8 -5 0 -4 15 3 13 21 -3 25 -10
3 -10 2 1 -6z"/>
<path d="M3963 383 c1 -17 4 -19 14 -11 15 12 18 22 4 14 -5 -4 -11 0 -14 6
-3 7 -4 3 -4 -9z"/>
<path d="M7570 15149 c0 -5 5 -7 10 -4 6 3 10 8 10 11 0 2 -4 4 -10 4 -5 0
-10 -5 -10 -11z"/>
<path d="M7624 15149 c1 -7 10 -13 19 -15 9 -1 15 2 11 7 -3 5 -9 7 -14 4 -4
-3 -11 0 -13 5 -3 6 -4 5 -3 -1z"/>
<path d="M7895 15070 c3 -5 8 -10 11 -10 2 0 4 5 4 10 0 6 -5 10 -11 10 -5 0
-7 -4 -4 -10z"/>
<path d="M8266 15048 c3 -5 10 -6 15 -3 13 9 11 12 -6 12 -8 0 -12 -4 -9 -9z"/>
<path d="M9133 14910 c-2 -23 22 -46 32 -30 4 6 1 9 -7 8 -7 -2 -13 5 -13 14
0 24 -11 31 -12 8z"/>
<path d="M9215 14860 c-3 -5 -1 -10 4 -10 6 0 11 5 11 10 0 6 -2 10 -4 10 -3
0 -8 -4 -11 -10z"/>
<path d="M9260 14816 c0 -2 7 -7 16 -10 8 -3 12 -2 9 4 -6 10 -25 14 -25 6z"/>
<path d="M9307 14783 c-4 -3 -7 -11 -7 -17 0 -6 5 -5 12 2 6 6 9 14 7 17 -3 3
-9 2 -12 -2z"/>
<path d="M9376 14712 c-3 -5 1 -9 9 -9 8 0 12 4 9 9 -3 4 -7 8 -9 8 -2 0 -6
-4 -9 -8z"/>
<path d="M6515 14700 c-3 -5 -1 -10 4 -10 6 0 11 5 11 10 0 6 -2 10 -4 10 -3
0 -8 -4 -11 -10z"/>
<path d="M9415 14700 c-3 -5 -1 -10 4 -10 6 0 11 5 11 10 0 6 -2 10 -4 10 -3
0 -8 -4 -11 -10z"/>
<path d="M9487 14593 c-3 -5 10 -26 29 -48 18 -22 34 -34 34 -27 0 6 -5 12
-12 12 -6 0 -8 3 -5 7 4 3 -2 13 -13 20 -11 8 -18 18 -15 23 3 5 1 11 -4 14
-5 4 -12 3 -14 -1z"/>
<path d="M6373 14535 c0 -8 4 -12 9 -9 5 3 6 10 3 15 -9 13 -12 11 -12 -6z"/>
<path d="M9713 14305 c0 -8 4 -12 9 -9 5 3 6 10 3 15 -9 13 -12 11 -12 -6z"/>
<path d="M9797 14068 c19 -21 31 -25 14 -5 -6 8 -9 16 -6 19 3 2 -2 5 -10 5
-13 0 -13 -3 2 -19z"/>
<path d="M9809 13963 c-13 -16 -12 -17 4 -4 16 13 21 21 13 21 -2 0 -10 -8
-17 -17z"/>
<path d="M9855 13929 c-4 -6 -5 -12 -2 -15 2 -3 7 2 10 11 7 17 1 20 -8 4z"/>
<path d="M9830 13860 c0 -4 7 -7 15 -6 23 3 26 12 5 13 -11 1 -20 -2 -20 -7z"/>
<path d="M5896 13788 c3 -5 10 -6 15 -3 13 9 11 12 -6 12 -8 0 -12 -4 -9 -9z"/>
<path d="M9837 13789 c7 -7 15 -10 18 -7 3 3 -2 9 -12 12 -14 6 -15 5 -6 -5z"/>
<path d="M9873 13745 c0 -8 4 -12 9 -9 5 3 6 10 3 15 -9 13 -12 11 -12 -6z"/>
<path d="M9870 13680 c0 -5 5 -10 11 -10 5 0 7 5 4 10 -3 6 -8 10 -11 10 -2 0
-4 -4 -4 -10z"/>
<path d="M9835 13640 c-3 -5 -1 -10 4 -10 6 0 11 5 11 10 0 6 -2 10 -4 10 -3
0 -8 -4 -11 -10z"/>
<path d="M9877 13597 c4 -6 0 -8 -8 -5 -11 4 -15 -1 -15 -18 0 -13 2 -22 4
-20 2 3 3 7 2 11 0 3 9 14 21 24 17 14 19 18 6 18 -9 0 -13 -5 -10 -10z"/>
<path d="M9860 13540 c-8 -5 -10 -10 -5 -10 6 0 17 5 25 10 8 5 11 10 5 10 -5
0 -17 -5 -25 -10z"/>
<path d="M9895 13529 c-4 -6 -5 -12 -2 -15 2 -3 7 2 10 11 7 17 1 20 -8 4z"/>
<path d="M9828 13513 c7 -3 16 -2 19 1 4 3 -2 6 -13 5 -11 0 -14 -3 -6 -6z"/>
<path d="M9842 13477 c-8 -9 -6 -16 7 -24 14 -9 18 -8 18 3 0 7 -5 10 -10 7
-6 -4 -8 0 -4 10 8 20 3 22 -11 4z"/>
<path d="M9866 13422 c-3 -5 1 -9 9 -9 8 0 15 4 15 9 0 4 -4 8 -9 8 -6 0 -12
-4 -15 -8z"/>
<path d="M9830 13380 c0 -5 5 -10 10 -10 6 0 10 5 10 10 0 6 -4 10 -10 10 -5
0 -10 -4 -10 -10z"/>
<path d="M9840 13320 c-9 -6 -10 -10 -3 -10 6 0 15 5 18 10 8 12 4 12 -15 0z"/>
<path d="M9840 13260 c-12 -7 -10 -9 7 -7 12 0 19 5 17 9 -6 10 -6 10 -24 -2z"/>
<path d="M5917 13219 c7 -7 15 -10 18 -7 3 3 -2 9 -12 12 -14 6 -15 5 -6 -5z"/>
<path d="M9816 13167 c3 -10 9 -15 12 -12 3 3 0 11 -7 18 -10 9 -11 8 -5 -6z"/>
<path d="M9785 13120 c-3 -6 1 -7 9 -4 18 7 21 14 7 14 -6 0 -13 -4 -16 -10z"/>
<path d="M9811 13107 c-13 -21 -12 -21 5 -5 10 10 16 20 13 22 -3 3 -11 -5
-18 -17z"/>
<path d="M9755 13031 c-3 -5 -2 -12 3 -15 5 -3 9 1 9 9 0 17 -3 19 -12 6z"/>
<path d="M9768 12999 c-20 -11 -24 -29 -6 -29 6 0 8 3 5 7 -4 3 1 12 11 19 20
16 14 18 -10 3z"/>
<path d="M9696 12882 c-3 -4 4 -9 15 -9 23 -2 25 3 4 10 -8 4 -16 3 -19 -1z"/>
<path d="M9665 12830 c-3 -6 1 -7 9 -4 18 7 21 14 7 14 -6 0 -13 -4 -16 -10z"/>
<path d="M9675 12780 c-3 -5 -2 -10 4 -10 5 0 13 5 16 10 3 6 2 10 -4 10 -5 0
-13 -4 -16 -10z"/>
<path d="M9631 12704 c0 -11 3 -14 6 -6 3 7 2 16 -1 19 -3 4 -6 -2 -5 -13z"/>
<path d="M9615 12661 c-3 -5 -2 -12 3 -15 5 -3 9 1 9 9 0 17 -3 19 -12 6z"/>
<path d="M6151 12544 c0 -11 3 -14 6 -6 3 7 2 16 -1 19 -3 4 -6 -2 -5 -13z"/>
<path d="M9479 12453 c-13 -16 -12 -17 4 -4 9 7 17 15 17 17 0 8 -8 3 -21 -13z"/>
<path d="M9294 12099 c-3 -6 -1 -16 5 -22 9 -9 11 -8 5 6 -5 13 -2 16 10 11 9
-3 16 -4 16 -1 0 11 -30 16 -36 6z"/>
<path d="M6579 12092 c9 -7 10 -11 2 -15 -7 -4 -8 -5 0 -3 15 2 13 20 -3 24
-10 3 -10 2 1 -6z"/>
<path d="M6443 11985 c0 -8 4 -12 9 -9 5 3 6 10 3 15 -9 13 -12 11 -12 -6z"/>
<path d="M6195 11900 c-4 -6 -11 -7 -17 -4 -7 4 -8 2 -4 -5 6 -9 11 -9 22 0
14 11 18 19 10 19 -3 0 -8 -5 -11 -10z"/>
<path d="M3936 9681 c-4 -5 -2 -12 3 -15 5 -4 12 -2 15 3 4 5 2 12 -3 15 -5 4
-12 2 -15 -3z"/>
<path d="M11435 9500 c3 -5 8 -10 11 -10 2 0 4 5 4 10 0 6 -5 10 -11 10 -5 0
-7 -4 -4 -10z"/>
<path d="M11748 7953 c7 -3 16 -2 19 1 4 3 -2 6 -13 5 -11 0 -14 -3 -6 -6z"/>
<path d="M3660 7459 c0 -5 5 -7 10 -4 6 3 10 8 10 11 0 2 -4 4 -10 4 -5 0 -10
-5 -10 -11z"/>
<path d="M11765 7160 c-3 -6 1 -7 9 -4 18 7 21 14 7 14 -6 0 -13 -4 -16 -10z"/>
<path d="M3715 7020 c-3 -5 -1 -10 4 -10 6 0 11 5 11 10 0 6 -2 10 -4 10 -3 0
-8 -4 -11 -10z"/>
<path d="M3713 6985 c0 -8 4 -12 9 -9 5 3 6 10 3 15 -9 13 -12 11 -12 -6z"/>
<path d="M3736 6853 c-6 -14 -5 -15 5 -6 7 7 10 15 7 18 -3 3 -9 -2 -12 -12z"/>
<path d="M3886 6181 c-3 -5 1 -11 9 -14 9 -4 12 -1 8 9 -6 16 -10 17 -17 5z"/>
<path d="M11655 6141 c-3 -5 -2 -12 3 -15 5 -3 9 1 9 9 0 17 -3 19 -12 6z"/>
<path d="M11550 5580 c0 -5 5 -10 11 -10 5 0 7 5 4 10 -3 6 -8 10 -11 10 -2 0
-4 -4 -4 -10z"/>
<path d="M11445 5320 c-3 -6 1 -7 9 -4 18 7 21 14 7 14 -6 0 -13 -4 -16 -10z"/>
<path d="M5055 2989 c-4 -6 -5 -12 -2 -15 2 -3 7 2 10 11 7 17 1 20 -8 4z"/>
<path d="M9685 2869 c-4 -6 -4 -13 -1 -16 3 -4 6 -1 6 6 0 7 5 9 12 5 7 -4 8
-3 4 4 -9 15 -13 15 -21 1z"/>
<path d="M5137 2496 c-4 -10 -1 -13 9 -9 7 3 14 9 14 14 0 14 -17 10 -23 -5z"/>
<path d="M5135 2250 c-3 -6 1 -7 9 -4 18 7 21 14 7 14 -6 0 -13 -4 -16 -10z"/>
<path d="M5075 2059 c-4 -6 -4 -13 -1 -16 3 -4 6 -1 6 5 0 7 5 12 11 12 5 0 7
-5 3 -12 -4 -7 -3 -8 5 -4 12 8 6 26 -9 26 -5 0 -12 -5 -15 -11z"/>
<path d="M5030 1960 c0 -5 5 -10 11 -10 5 0 7 5 4 10 -3 6 -8 10 -11 10 -2 0
-4 -4 -4 -10z"/>
<path d="M5000 1946 c0 -2 8 -10 18 -17 15 -13 16 -12 3 4 -13 16 -21 21 -21
13z"/>
<path d="M5015 1900 c4 -6 11 -8 16 -5 14 9 11 15 -7 15 -8 0 -12 -5 -9 -10z"/>
<path d="M4370 1725 c0 -3 9 -15 20 -27 14 -16 20 -18 20 -7 0 8 -9 20 -20 27
-11 7 -20 10 -20 7z"/>
<path d="M4420 1702 c0 -4 9 -8 19 -8 11 0 17 4 15 8 -3 4 -12 8 -20 8 -8 0
-14 -4 -14 -8z"/>
<path d="M3340 1194 c0 -9 -5 -12 -12 -8 -7 4 -8 3 -4 -5 6 -9 11 -9 22 0 7 6
11 15 8 20 -8 14 -14 11 -14 -7z"/>
<path d="M3290 581 c0 -6 4 -13 10 -16 6 -3 7 1 4 9 -7 18 -14 21 -14 7z"/>
<path d="M9905 580 c-3 -6 1 -7 9 -4 18 7 21 14 7 14 -6 0 -13 -4 -16 -10z"/>
<path d="M3330 419 c0 -5 5 -7 10 -4 6 3 10 8 10 11 0 2 -4 4 -10 4 -5 0 -10
-5 -10 -11z"/>
</g>
</svg>
